<?xml version="1.0" encoding="utf-8"?>
<!-- Generator: Adobe Illustrator 26.5.0, SVG Export Plug-In . SVG Version: 6.00 Build 0)  -->
<svg version="1.1" id="Capa_1" xmlns="http://www.w3.org/2000/svg" xmlns:xlink="http://www.w3.org/1999/xlink" x="0px" y="0px"
	 viewBox="0 0 138.4 60" style="enable-background:new 0 0 138.4 60;" xml:space="preserve">
<style type="text/css">
	.st0{fill:#39A7DF;}
	.st1{fill:#FCD900;}
	.st2{clip-path:url(#SVGID_00000070805506090181216600000003375151024598927275_);}
	.st3{clip-path:url(#SVGID_00000090293710178009308650000006347190125933318019_);}
	.st4{fill:#5F3014;}
	.st5{opacity:0.42;}
	.st6{clip-path:url(#SVGID_00000182502508763253317190000015706475294258841774_);}
	.st7{fill:#040405;}
	.st8{fill:#F29B67;}
	.st9{fill:#331F14;}
	.st10{fill:#625A56;}
	.st11{fill:#AF9D9C;}
</style>
<circle id="Elipse_20" class="st0" cx="30" cy="30" r="30"/>
<g id="estrellas-2">
	<g id="star-fill-6">
		<path id="Trazado_28320-4" class="st1" d="M128.5,36c-0.2,0.1-0.5,0-0.6-0.2c0-0.1-0.1-0.2,0-0.3l0.7-3.8l-2.8-2.7
			c-0.2-0.2-0.2-0.5,0-0.6c0.1-0.1,0.2-0.1,0.2-0.1l3.9-0.6l1.8-3.5c0.1-0.2,0.4-0.3,0.6-0.2c0.1,0,0.1,0.1,0.2,0.2l1.8,3.5l3.9,0.6
			c0.2,0,0.4,0.3,0.4,0.5c0,0.1-0.1,0.2-0.1,0.2l-2.8,2.7l0.7,3.8c0,0.2-0.1,0.5-0.3,0.5c-0.1,0-0.2,0-0.3,0l-3.5-1.8L128.5,36
			L128.5,36L128.5,36z"/>
	</g>
	<g id="star-fill-7">
		<path id="Trazado_28320-5" class="st1" d="M113.6,36c-0.2,0.1-0.5,0-0.6-0.2c0-0.1-0.1-0.2,0-0.3l0.7-3.8l-2.8-2.7
			c-0.2-0.2-0.2-0.5,0-0.6c0.1-0.1,0.2-0.1,0.2-0.1l3.9-0.6l1.8-3.5c0.1-0.2,0.3-0.3,0.6-0.2c0.1,0,0.2,0.1,0.2,0.2l1.8,3.5l3.9,0.6
			c0.2,0,0.4,0.3,0.4,0.5c0,0.1-0.1,0.2-0.1,0.2l-2.8,2.7l0.7,3.8c0.1,0.2-0.1,0.5-0.3,0.5c-0.1,0-0.2,0-0.3,0l-3.5-1.8L113.6,36
			L113.6,36L113.6,36z"/>
	</g>
	<g id="star-fill-8">
		<path id="Trazado_28319-3" class="st1" d="M98.8,36c-0.2,0.1-0.5,0-0.6-0.2c0-0.1-0.1-0.2,0-0.3l0.7-3.8L96,29
			c-0.2-0.2-0.2-0.5,0-0.6c0.1-0.1,0.2-0.1,0.2-0.1l3.9-0.6l1.8-3.5c0.1-0.2,0.3-0.3,0.6-0.2c0.1,0,0.2,0.1,0.2,0.2l1.8,3.5l3.9,0.6
			c0.2,0,0.4,0.3,0.4,0.5c0,0.1-0.1,0.2-0.1,0.2l-2.8,2.7l0.7,3.8c0.1,0.2-0.1,0.5-0.3,0.5c-0.1,0-0.2,0-0.3,0l-3.5-1.8L98.8,36
			L98.8,36L98.8,36z"/>
	</g>
	<g id="star-fill-9">
		<path id="Trazado_28320-6" class="st1" d="M83.9,36c-0.2,0.1-0.5,0-0.6-0.2c0-0.1-0.1-0.2,0-0.3l0.7-3.8L81.1,29
			c-0.2-0.2-0.2-0.5,0-0.6c0.1-0.1,0.2-0.1,0.2-0.1l4-0.6l1.8-3.5c0.1-0.2,0.3-0.3,0.6-0.2c0.1,0,0.2,0.1,0.2,0.2l1.8,3.5l3.9,0.6
			c0.2,0,0.4,0.3,0.4,0.5c0,0.1-0.1,0.2-0.1,0.2l-2.8,2.7l0.7,3.8c0.1,0.2-0.1,0.5-0.3,0.5c-0.1,0-0.2,0-0.3,0l-3.5-1.8L83.9,36
			L83.9,36L83.9,36z"/>
	</g>
	<g id="star-fill-10">
		<path id="Trazado_28319-4" class="st1" d="M69,36c-0.2,0.1-0.5,0-0.6-0.2c0-0.1,0-0.2,0-0.3l0.7-3.8L66.2,29
			c-0.2-0.2-0.2-0.5,0-0.6c0.1-0.1,0.2-0.1,0.2-0.1l4-0.6l1.8-3.5c0.1-0.2,0.3-0.3,0.5-0.2c0.1,0,0.2,0.1,0.2,0.2l1.8,3.5l3.9,0.6
			c0.2,0,0.4,0.3,0.4,0.5c0,0.1-0.1,0.2-0.1,0.2L76,31.7l0.7,3.8c0.1,0.2-0.1,0.5-0.3,0.5c-0.1,0-0.2,0-0.3,0l-3.5-1.8L69,36L69,36
			L69,36z"/>
	</g>
</g>
<g>
	<defs>
		<rect id="SVGID_1_" x="8.1" y="7.3" width="39.5" height="42.1"/>
	</defs>
	<clipPath id="SVGID_00000039110533027016262540000009389224351491854995_">
		<use xlink:href="#SVGID_1_"  style="overflow:visible;"/>
	</clipPath>
	<g style="clip-path:url(#SVGID_00000039110533027016262540000009389224351491854995_);">
		<g id="Grupo_13771">
			<g id="Grupo_13770">
				<g>
					<defs>
						<rect id="SVGID_00000175322484818960627160000008148699842672227510_" x="8.1" y="7.3" width="39.5" height="42.1"/>
					</defs>
					<clipPath id="SVGID_00000111180655187061159480000003654857879680775826_">
						<use xlink:href="#SVGID_00000175322484818960627160000008148699842672227510_"  style="overflow:visible;"/>
					</clipPath>
					<g style="clip-path:url(#SVGID_00000111180655187061159480000003654857879680775826_);">
						<g id="Grupo_13769">
							<path id="Trazado_28321" class="st4" d="M31.2,11.8c0,0,0.7,1.3-0.2,1.4c-3.7,0.2-13,1.2-14,7.4c-1.4,8.5-0.7,21.3-0.7,21.3
								l1-0.2l-1.1,2.1l1.9-0.5l-0.4,2.1l1.9-0.8l1.8,3.1l2.9-2.1l8.1,3.9l6.3-3.9l3.5,1.8l1.6-2.7l1.5,0.6l-0.4-2.3l1.9,0.1l-1-2.5
								l1.7,1.1c0,0,0.5-14.5-0.8-21.4c-0.9-5.4-7-6.7-10.8-7c-0.7,0.1-1.4,0-2-0.1C33,12.6,32.1,12.1,31.2,11.8"/>
							<g id="Grupo_13768" class="st5">
								<g id="Grupo_13767">
									<g>
										<defs>
											<rect id="SVGID_00000165953476503291631360000008226786160564307105_" x="19.4" y="19.8" width="25.9" height="23.4"/>
										</defs>
										<clipPath id="SVGID_00000127759710212225884490000010706089130920388775_">
											<use xlink:href="#SVGID_00000165953476503291631360000008226786160564307105_"  style="overflow:visible;"/>
										</clipPath>
										<g style="clip-path:url(#SVGID_00000127759710212225884490000010706089130920388775_);">
											<g id="Grupo_13766">
												<path id="Trazado_28322" class="st7" d="M45.2,26.1c0,0-0.5-5.9-5.1-6.1C35,19.8,29.8,20,24.7,20.7
													c-5,0.6-5.3,5.8-5.3,5.8s-0.3,6,3.1,7.1l0,3.2c0,0,0.8,6.2,9.5,6.5l0,0c0.2,0,0.3,0,0.4,0h0.4c8.6-0.2,9.6-6.3,9.6-6.3
													l0-3.2C45.6,32.4,45.2,26,45.2,26.1"/>
											</g>
										</g>
									</g>
								</g>
							</g>
							<path id="Trazado_28323" class="st8" d="M44.8,25.6c0,0-0.2-5.2-4.8-5.5c-5-0.2-10.7-0.5-15.8,0.1C19.3,20.9,19,26,19,26
								s-0.3,6,3.1,7.1l0,3.2c0,0,0.8,6.2,9.5,6.5l0,0c0.1,0,0.3,0,0.4,0h0.4c8.6-0.2,9.6-6.3,9.6-6.3l0-3.2
								C45.2,32,44.8,25.6,44.8,25.6"/>
							<path id="Trazado_28324" class="st4" d="M29.2,30.1c0-0.5-0.4-1-1-1c-0.5,0-1,0.4-1,1c0,0.5,0.4,1,1,1
								C28.8,31.1,29.2,30.7,29.2,30.1"/>
							<path id="Trazado_28325" class="st4" d="M36.7,29.9c0-0.5-0.4-1-0.9-1c-0.5,0-1,0.4-1,0.9c0,0.5,0.4,1,0.9,1l0,0
								C36.2,30.8,36.7,30.4,36.7,29.9"/>
							<path id="Trazado_28326" class="st9" d="M39.3,35.6c0,0-8.4,7.1-15-0.1C29,38.5,39.3,35.6,39.3,35.6L39.3,35.6L39.3,35.6z"/>
							<path id="Trazado_28327" class="st9" d="M32.3,33.8c0,0-0.6,0.7-1,0.1v-0.7h1.2L32.3,33.8L32.3,33.8z"/>
							<path id="Trazado_28328" class="st9" d="M29.4,33.8c0,0,0.6,0.7,1,0.1v-0.7h-1.1L29.4,33.8L29.4,33.8z"/>
							<path id="Trazado_28329" class="st10" d="M16.3,24.2L8,24.1c0.1-0.5,0.5-0.9,1-1c1.6-0.4,3.3-0.6,5-0.7
								c1.7-0.1,5.8,0.1,5.8,0.1L16.3,24.2L16.3,24.2z"/>
							<path id="Trazado_28330" class="st11" d="M16.3,24.2l30.8,0c0.2-3.1-1-6.8-1.4-8.4c-1-4.3-6.4-7.9-14.2-7.9
								S18,11.5,17.1,15.8C16.5,18.6,16.2,21.4,16.3,24.2 M24.9,21.9c0-2,3.1-4.7,6.8-4.7s6.8,2.7,6.8,4.7
								C38.6,21.9,24.9,21.9,24.9,21.9z"/>
							<rect id="Rectángulo_14723" x="24.8" y="21.6" class="st10" width="13.7" height="2.7"/>
							<path id="Trazado_28331" class="st10" d="M39.1,24.4c0-0.1-0.1-0.3-0.1-0.5l0.2,0c0,0.1,0,0.3,0.1,0.5L39.1,24.4L39.1,24.4z
								 M24.2,24.3H24c0-0.1,0-0.3,0-0.5h0.2C24.2,24,24.2,24.2,24.2,24.3 M39.2,23.4H39c0-0.2,0-0.3,0-0.5h0.2
								C39.2,23.1,39.2,23.3,39.2,23.4 M24.2,23.4H24c0-0.2,0-0.3,0.1-0.5l0.2,0C24.2,23.1,24.2,23.2,24.2,23.4 M24.4,22.5l-0.2,0
								c0-0.2,0.1-0.3,0.1-0.5l0.2,0C24.4,22.2,24.4,22.3,24.4,22.5 M39.2,22.5H39v0c0-0.1,0-0.3,0-0.4h0.2
								C39.2,22.1,39.2,22.3,39.2,22.5L39.2,22.5z M24.6,21.5l-0.2,0c0-0.1,0.1-0.3,0.1-0.5l0.2,0C24.7,21.2,24.6,21.4,24.6,21.5
								 M38.9,21.5c0-0.1-0.1-0.3-0.1-0.5l0.2,0c0,0.1,0.1,0.3,0.1,0.5C39.1,21.5,38.9,21.5,38.9,21.5z M38.6,20.6
								c-0.1-0.1-0.1-0.3-0.2-0.4l0.2-0.1c0.1,0.1,0.2,0.3,0.2,0.4L38.6,20.6L38.6,20.6z M24.9,20.6l-0.2,0c0.1-0.1,0.1-0.3,0.2-0.5
								l0.2,0.1C25,20.3,25,20.5,24.9,20.6 M38.1,19.8c-0.1-0.1-0.2-0.3-0.3-0.4l0.2-0.1c0.1,0.1,0.2,0.3,0.3,0.4
								C38.3,19.7,38.1,19.8,38.1,19.8z M25.3,19.8l-0.2-0.1c0.1-0.1,0.2-0.3,0.3-0.4l0.2,0.1C25.5,19.5,25.4,19.6,25.3,19.8
								 M37.5,19c-0.1-0.1-0.2-0.2-0.4-0.4l0.2-0.1c0.1,0.1,0.3,0.2,0.4,0.4C37.7,18.9,37.5,19,37.5,19z M25.9,19l-0.2-0.1
								c0.1-0.1,0.2-0.3,0.4-0.4l0.1,0.1C26.1,18.7,26,18.8,25.9,19 M36.8,18.3c-0.1-0.1-0.3-0.2-0.4-0.3l0.1-0.1
								c0.2,0.1,0.3,0.2,0.4,0.3L36.8,18.3z M26.6,18.2l-0.1-0.1c0.1-0.1,0.3-0.2,0.5-0.3l0.1,0.1C26.9,18,26.8,18.1,26.6,18.2
								 M35.9,17.7c-0.2-0.1-0.3-0.2-0.5-0.3l0.1-0.1c0.2,0.1,0.3,0.2,0.5,0.3L35.9,17.7L35.9,17.7z M27.5,17.7l-0.1-0.1
								c0.2-0.1,0.3-0.2,0.5-0.2l0.1,0.1C27.9,17.5,27.7,17.6,27.5,17.7 M28.6,17.2l-0.1-0.1c0.2-0.1,0.4-0.1,0.6-0.2l0.1,0.1
								C28.9,17.1,28.7,17.2,28.6,17.2 M34.8,17.2c-0.2-0.1-0.4-0.1-0.5-0.2l0.1-0.1c0.2,0,0.4,0.1,0.6,0.2
								C34.9,17.1,34.8,17.2,34.8,17.2z M29.7,16.9l0-0.1c0.2,0,0.4-0.1,0.6-0.1l0,0.1C30,16.9,29.8,16.9,29.7,16.9 M33.7,16.9
								c-0.2,0-0.4-0.1-0.6-0.1l0-0.2c0.2,0,0.4,0,0.6,0.1L33.7,16.9z M30.8,16.8l0-0.2c0.2,0,0.4,0,0.6,0v0.2
								C31.2,16.7,31,16.8,30.8,16.8 M32.6,16.8c-0.2,0-0.4,0-0.6,0v-0.2c0.2,0,0.4,0,0.6,0L32.6,16.8z"/>
							<path id="Trazado_28332" class="st10" d="M31.5,16.6h-0.2l0-0.1h0.2L31.5,16.6z M31.6,16h-0.2l0-0.5h0.2L31.6,16z M31.7,15.1
								h-0.2l0-0.5h0.2L31.7,15.1z M31.8,14.2h-0.2c0-0.2,0-0.3,0-0.5h0.2C31.8,13.8,31.8,14,31.8,14.2 M31.8,13.2h-0.2
								c0-0.2,0-0.3,0-0.5h0.2C31.8,12.9,31.8,13,31.8,13.2 M31.6,12.3c0-0.1,0-0.3,0-0.5h0.2c0,0.2,0,0.3,0,0.5H31.6z M31.6,11.3
								c0-0.1,0-0.3,0-0.5h0.2c0,0.1,0,0.3,0,0.5L31.6,11.3L31.6,11.3z M31.5,10.4c0-0.2,0-0.3,0-0.5h0.2c0,0.1,0,0.3,0,0.5
								L31.5,10.4L31.5,10.4z M31.5,9.5l0-0.5h0.2l0,0.5L31.5,9.5L31.5,9.5z M31.4,8.6c0-0.3,0-0.5,0-0.5h0.2c0,0,0,0.2,0,0.5
								L31.4,8.6L31.4,8.6z"/>
							<path id="Trazado_28333" class="st10" d="M30.1,7.9c0,0.3,0.5,0.6,1.2,0.6s1.2-0.3,1.2-0.6c0-0.4-0.5-0.6-1.2-0.6
								S30.1,7.5,30.1,7.9"/>
						</g>
					</g>
				</g>
			</g>
		</g>
	</g>
</g>
</svg>
