<?xml version="1.0" encoding="utf-8"?>
<!-- Generator: Adobe Illustrator 26.5.0, SVG Export Plug-In . SVG Version: 6.00 Build 0)  -->
<svg version="1.1" id="Capa_1" xmlns="http://www.w3.org/2000/svg" xmlns:xlink="http://www.w3.org/1999/xlink" x="0px" y="0px"
	 viewBox="0 0 140.5 60" style="enable-background:new 0 0 140.5 60;" xml:space="preserve">
<style type="text/css">
	.st0{fill:#39A7DF;}
	.st1{clip-path:url(#SVGID_00000003088904291389559350000001092623461579016356_);}
	.st2{fill:#934915;}
	.st3{fill:#E99666;}
	.st4{fill:#4D2413;}
	.st5{fill:#271812;}
	.st6{fill:#FCD900;}
</style>
<g>
	<circle id="Elipse_20" class="st0" cx="30" cy="30" r="30"/>
	<g>
		<defs>
			<rect id="SVGID_1_" x="9.1" y="8.8" width="39.8" height="41.9"/>
		</defs>
		<clipPath id="SVGID_00000170993999506723349460000009361890252192454816_">
			<use xlink:href="#SVGID_1_"  style="overflow:visible;"/>
		</clipPath>
		<g style="clip-path:url(#SVGID_00000170993999506723349460000009361890252192454816_);">
			<g id="Grupo_13822">
				<path id="Trazado_28422" class="st2" d="M23.3,8.9c-4.9,0.8-8.1,3.8-10.2,9.3c-3.1,8,4.9,15.4,1.2,20.6
					c-1.3,1.6-3.1,2.6-5.2,2.9l4.8,1.1c0,0.3-0.1,0.7-0.3,1c-0.4,0.6-1.1,0.9-1.8,1c1.5,0.5,3.1,0.2,4.3-0.8c0.1,0.5,0,1.1-0.2,1.6
					c-0.3,0.9-0.9,1.6-1.7,2.1c1-0.1,1.9-0.3,2.8-0.7c0.4-0.2,0.8-0.4,1.2-0.7l1.4,2.4l3.1-2.3l8.7,4.2l6.8-4.2l3.8,1.9l1.8-2.9
					l1.7,0.7c-0.1-1.1-0.3-2.3-0.4-3.4c0.6,1,1.5,1.8,2.6,2.4c-0.7-0.6-1.1-1.4-1.3-2.3c-0.1-0.6-0.1-1.2,0-1.7
					c0.2,0.4,0.4,0.7,0.6,1c0.5,0.6,1.1,1.1,1.8,1.4c-0.3-0.5-0.6-0.9-0.9-1.4c-0.7-1.5-1.2-3.2-1.2-4.8c-0.3-2.9-1-2.2-0.9-5.4
					c0-2.3,0.3-4.5,0.9-6.8c0.6-3.1,0.6-8.6-2.8-11.9c-2-2-5-2.9-7.8-2.2C35.1,10.6,28.2,8.1,23.3,8.9"/>
				<path id="Trazado_28423" class="st3" d="M17.4,24.5c0,0,0.3-5.7,5.1-5.9c5.3-0.3,9.3,2.1,10.2,3.6c0.8-1.5,2-3.9,6.5-3.5
					c5.3,0.6,5.7,6.1,5.7,6.1s0.3,6.4-3.2,7.5l0,3.4c0,0-0.9,6.6-10,7l0,0c-0.2,0-0.3,0-0.5,0s-0.3,0-0.5,0l0,0
					C21.5,42.5,20.4,36,20.4,36l0-3.5C17.1,31.3,17.4,24.5,17.4,24.5"/>
				<path id="Trazado_28424" class="st4" d="M34.7,29.2c0-0.6,0.5-1.1,1-1.1c0.6,0,1.1,0.5,1.1,1c0,0.6-0.5,1.1-1,1.1l0,0l0,0
					C35.2,30.2,34.7,29.7,34.7,29.2L34.7,29.2z"/>
				<path id="Trazado_28425" class="st4" d="M27.1,28.9c0-0.6,0.4-1,1-1l0,0l0,0c0.6,0,1,0.4,1,1c0,0.6-0.4,1-1,1
					C27.6,29.9,27.1,29.5,27.1,28.9L27.1,28.9z"/>
				<path id="Trazado_28426" class="st5" d="M30.8,33.1c0,0,0.7,0.8,1.1,0.1v-0.8h-1.2L30.8,33.1L30.8,33.1z"/>
				<path id="Trazado_28427" class="st5" d="M33.8,33.1c0,0-0.7,0.8-1.1,0.1v-0.8l1.2,0L33.8,33.1L33.8,33.1z"/>
				<path id="Trazado_28428" class="st5" d="M32,36.3c1.2,0,2.5-0.1,3.7-0.3c-1.1,0.8-2.4,1.3-3.7,1.4c-1.4-0.1-2.7-0.5-3.8-1.3
					C29.5,36.2,30.8,36.3,32,36.3"/>
				<path id="Trazado_28429" class="st2" d="M32,20.2c-0.8-0.7-1.8-1.3-2.8-1.5c-2.4-0.4-4.8,0.5-6.4,2.3c-3.1,4.1,2.3,9.9-0.2,16.7
					c-1.2,2.8-3.3,5.2-6,6.7c0.7-1,1.3-2,1.6-3.2c0.7-2.4,0.8-5,0.1-7.5c-0.9-4.7-2.7-6.3-2.2-10.1c0.1-0.6,0.2-1.2,0.4-1.7
					c1-2.9,3.3-5,6.3-5.7C26.4,15.5,30,17.1,32,20.2"/>
			</g>
		</g>
	</g>
</g>
<g id="estrellas-3">
	<g id="star-fill-11">
		<path id="Trazado_28320-7" class="st6" d="M130.6,35.7c-0.2,0.1-0.5,0-0.6-0.2c0-0.1-0.1-0.2,0-0.3l0.7-3.8l-2.8-2.7
			c-0.2-0.2-0.2-0.5,0-0.6c0.1-0.1,0.2-0.1,0.2-0.1l3.9-0.6l1.8-3.5c0.1-0.2,0.3-0.3,0.5-0.2c0.1,0,0.2,0.1,0.2,0.2l1.8,3.5l3.9,0.6
			c0.2,0,0.4,0.3,0.4,0.5c0,0.1-0.1,0.2-0.1,0.2l-2.8,2.7l0.7,3.8c0.1,0.2-0.1,0.5-0.3,0.5c-0.1,0-0.2,0-0.3,0l-3.5-1.8L130.6,35.7
			L130.6,35.7z"/>
	</g>
	<g id="star-fill-12">
		<path id="Trazado_28320-8" class="st6" d="M115.7,35.7c-0.2,0.1-0.5,0-0.6-0.2c0-0.1-0.1-0.2,0-0.3l0.7-3.8l-2.8-2.7
			c-0.2-0.2-0.2-0.5,0-0.6C113,28,113,28,113.1,28l3.9-0.6l1.8-3.5c0.1-0.2,0.3-0.3,0.6-0.2c0.1,0,0.2,0.1,0.2,0.2l1.8,3.5l3.9,0.6
			c0.2,0,0.4,0.3,0.4,0.5c0,0.1-0.1,0.2-0.1,0.2l-2.8,2.7l0.7,3.8c0.1,0.2-0.1,0.5-0.3,0.5c-0.1,0-0.2,0-0.3,0l-3.5-1.8L115.7,35.7
			L115.7,35.7z"/>
	</g>
	<g id="star-fill-13">
		<path id="Trazado_28319-5" class="st6" d="M100.8,35.7c-0.2,0.1-0.5,0-0.6-0.2c0-0.1-0.1-0.2,0-0.3l0.7-3.8L98,28.7
			c-0.2-0.2-0.2-0.5,0-0.6c0.1-0.1,0.2-0.1,0.2-0.1l3.9-0.6l1.8-3.5c0.1-0.2,0.3-0.3,0.6-0.2c0.1,0,0.2,0.1,0.2,0.2l1.8,3.5l3.9,0.6
			c0.2,0,0.4,0.3,0.4,0.5c0,0.1-0.1,0.2-0.1,0.2l-2.8,2.7l0.7,3.8c0.1,0.2-0.1,0.5-0.3,0.5c-0.1,0-0.2,0-0.3,0l-3.5-1.8L100.8,35.7
			L100.8,35.7z"/>
	</g>
	<g id="star-fill-14">
		<path id="Trazado_28320-9" class="st6" d="M85.9,35.7c-0.2,0.1-0.5,0-0.6-0.2c0-0.1-0.1-0.2,0-0.3l0.7-3.8l-2.8-2.7
			c-0.2-0.2-0.2-0.5,0-0.6c0.1-0.1,0.2-0.1,0.2-0.1l4-0.6l1.8-3.5c0.1-0.2,0.3-0.3,0.6-0.2c0.1,0,0.2,0.1,0.2,0.2l1.8,3.5l3.9,0.6
			c0.2,0,0.4,0.3,0.4,0.5c0,0.1-0.1,0.2-0.1,0.2l-2.8,2.7l0.7,3.8c0.1,0.2-0.1,0.5-0.3,0.5c-0.1,0-0.2,0-0.3,0l-3.5-1.8L85.9,35.7
			L85.9,35.7z"/>
	</g>
	<g id="star-fill-15">
		<path id="Trazado_28319-6" class="st6" d="M71,35.7c-0.2,0.1-0.5,0-0.6-0.2c0-0.1,0-0.2,0-0.3l0.7-3.8l-2.8-2.7
			c-0.2-0.2-0.2-0.5,0-0.6c0.1-0.1,0.2-0.1,0.2-0.1l3.9-0.6l1.8-3.5c0.1-0.2,0.3-0.3,0.5-0.2c0.1,0,0.2,0.1,0.2,0.2l1.8,3.5l3.9,0.6
			c0.2,0,0.4,0.3,0.4,0.5c0,0.1-0.1,0.2-0.1,0.2L78,31.4l0.7,3.8c0.1,0.2-0.1,0.5-0.3,0.5c-0.1,0-0.2,0-0.3,0l-3.5-1.8L71,35.7
			L71,35.7z"/>
	</g>
</g>
</svg>
