<?xml version="1.0" encoding="utf-8"?>
<!-- Generator: Adobe Illustrator 26.5.0, SVG Export Plug-In . SVG Version: 6.00 Build 0)  -->
<svg version="1.1" id="Capa_1" xmlns="http://www.w3.org/2000/svg" xmlns:xlink="http://www.w3.org/1999/xlink" x="0px" y="0px"
	 viewBox="0 0 140.5 60" style="enable-background:new 0 0 140.5 60;" xml:space="preserve">
<style type="text/css">
	.st0{fill:#39A7DF;}
	.st1{clip-path:url(#SVGID_00000078030820821411232810000015888809842237777281_);}
	.st2{clip-path:url(#SVGID_00000173862829887876980010000006807833748676722309_);}
	.st3{fill:#5F3014;}
	.st4{opacity:0.42;}
	.st5{clip-path:url(#SVGID_00000070089120362723030330000018066030282576845746_);}
	.st6{fill:#040405;}
	.st7{fill:#F29B67;}
	.st8{fill:#331F14;}
	.st9{fill:#293670;}
	.st10{fill:#66529A;}
	.st11{fill:#FCD900;}
</style>
<g>
	<circle id="Elipse_20" class="st0" cx="30" cy="30" r="30"/>
	<g>
		<defs>
			<rect id="SVGID_1_" x="12.2" y="7.1" width="35.3" height="42.2"/>
		</defs>
		<clipPath id="SVGID_00000003827512553227422360000002605524675918028731_">
			<use xlink:href="#SVGID_1_"  style="overflow:visible;"/>
		</clipPath>
		<g style="clip-path:url(#SVGID_00000003827512553227422360000002605524675918028731_);">
			<g id="Grupo_13817">
				<g id="Grupo_13816">
					<g>
						<defs>
							<rect id="SVGID_00000040535906870379341760000007651546374131739040_" x="12.2" y="7.1" width="35.3" height="42.2"/>
						</defs>
						<clipPath id="SVGID_00000145033376589343381020000008820418358953921686_">
							<use xlink:href="#SVGID_00000040535906870379341760000007651546374131739040_"  style="overflow:visible;"/>
						</clipPath>
						<g style="clip-path:url(#SVGID_00000145033376589343381020000008820418358953921686_);">
							<g id="Grupo_13815">
								<path id="Trazado_28404" class="st3" d="M29.3,7.1c0,0,0.8,1.5-0.2,1.5c-4.1,0.2-14.6,1.3-15.8,8.2
									c-1.6,9.5-0.9,23.9-0.9,23.9l1.1-0.2l-1.3,2.3l2.1-0.5l-0.4,2.3l2.1-0.9l2,3.5l3.2-2.3l9.1,4.4l7.1-4.4l3.9,2l1.8-3l1.7,0.7
									l-0.4-2.6l2.1,0.1l-1.1-2.8l2,1.2c0,0,0.6-16.2-0.7-24c-1-6.1-7.9-7.6-12.1-7.9c-0.4,0-1.1-1.1-1.4-1.1c0,0-0.6,1.2-0.9,1
									C31.3,8,30.3,7.5,29.3,7.1"/>
								<g id="Grupo_13814" class="st4">
									<g id="Grupo_13813">
										<g>
											<defs>
												<rect id="SVGID_00000165204537426752503010000003577404562559517875_" x="16.1" y="17" width="29" height="25.5"/>
											</defs>
											<clipPath id="SVGID_00000067952328728676930880000001387171335634175899_">
												<use xlink:href="#SVGID_00000165204537426752503010000003577404562559517875_"  style="overflow:visible;"/>
											</clipPath>
											<g style="clip-path:url(#SVGID_00000067952328728676930880000001387171335634175899_);">
												<g id="Grupo_13812">
													<path id="Trazado_28405" class="st6" d="M45.1,23.3c0,0-0.3-6-5.4-6.2c-5.6-0.3-7.9,2.2-8.8,3.8
														c-0.9-1.6-3.2-4.3-8.8-3.7c-5.6,0.6-6,6.4-6,6.4s-0.4,6.7,3.4,7.9l0,3.6c0,0,0.9,6.9,10.6,7.3l0,0c0.2,0,0.3,0,0.5,0
														s0.3,0,0.5,0l0,0c9.7-0.2,10.8-7.1,10.8-7.1l0-3.6C45.4,30.5,45.1,23.3,45.1,23.3"/>
												</g>
											</g>
										</g>
									</g>
								</g>
								<path id="Trazado_28406" class="st7" d="M44.5,22.8c0,0-0.3-6-5.4-6.2c-5.6-0.3-7.9,2.2-8.8,3.8c-0.9-1.6-3.2-4.3-8.8-3.7
									c-5.6,0.6-6,6.4-6,6.4S15.2,29.8,19,31l0,3.6c0,0,0.9,6.9,10.6,7.3l0,0c0.2,0,0.3,0,0.5,0s0.3,0,0.5,0l0,0
									c9.7-0.2,10.8-7.1,10.8-7.1l0-3.6C44.9,30,44.6,22.8,44.5,22.8"/>
								<path id="Trazado_28407" class="st3" d="M27,27.7c0-0.6-0.5-1.1-1.1-1.1s-1.1,0.5-1.1,1.1s0.5,1.1,1.1,1.1l0,0
									C26.5,28.8,27,28.3,27,27.7"/>
								<path id="Trazado_28408" class="st3" d="M35.4,27.5c0-0.6-0.5-1.1-1.1-1.1c-0.6,0-1.1,0.5-1.1,1.1c0,0.6,0.5,1.1,1.1,1.1
									C34.9,28.5,35.4,28.1,35.4,27.5L35.4,27.5"/>
								<path id="Trazado_28409" class="st8" d="M38.3,33.9c0,0-9.5,7.9-16.9-0.2C26.7,37.1,38.3,33.9,38.3,33.9L38.3,33.9
									L38.3,33.9z"/>
								<path id="Trazado_28410" class="st8" d="M30.5,31.9c0,0-0.7,0.8-1.1,0.1v-0.8h1.3C30.6,31.2,30.5,31.9,30.5,31.9z"/>
								<path id="Trazado_28411" class="st8" d="M27.2,31.8c0,0,0.7,0.8,1.1,0.1v-0.8l-1.3,0C27.1,31.1,27.2,31.8,27.2,31.8z"/>
								<path id="Trazado_28412" class="st9" d="M45.8,14.1c-3.2-0.8-26.5-0.9-31-0.2c0.8-1.1,1.8-2,3-2.6l24.9,0.7
									C42.8,11.9,45.3,12.8,45.8,14.1"/>
								<path id="Trazado_28413" class="st10" d="M45.6,13.7c-3.2-0.8-27.5-0.8-30.4-0.4c1-1.4,3.8-2.6,3.8-2.6L42.8,11
									C42.8,11,45.1,12.4,45.6,13.7"/>
								<path id="Trazado_28414" class="st9" d="M31.3,11.3l3.4-2.6l-0.2,5.8L31.3,11.3z"/>
								<path id="Trazado_28415" class="st10" d="M31.6,11.4l3.1-2.5l-0.4,5L31.6,11.4L31.6,11.4z"/>
								<path id="Trazado_28416" class="st9" d="M30.9,11.3l-2.9-2.6l-0.2,5.2L30.9,11.3L30.9,11.3z"/>
								<path id="Trazado_28417" class="st10" d="M30.6,11.3l-2.6-2.5v4.4L30.6,11.3L30.6,11.3z"/>
								<path id="Trazado_28418" class="st9" d="M32.4,11.5c0,0.6-0.5,1.1-1.1,1.1c-0.6,0-1.1-0.5-1.1-1.1c0-0.6,0.5-1.1,1.1-1.1
									C31.9,10.4,32.4,10.9,32.4,11.5"/>
								<path id="Trazado_28419" class="st10" d="M32.2,11.4c0,0.6-0.5,1-1,1c-0.6,0-1-0.5-1-1c0-0.6,0.5-1,1-1
									C31.7,10.4,32.2,10.8,32.2,11.4L32.2,11.4"/>
							</g>
						</g>
					</g>
				</g>
			</g>
		</g>
	</g>
</g>
<g id="estrellas">
	<g id="star-fill">
		<path id="Trazado_28320" class="st11" d="M130.6,36c-0.2,0.1-0.5,0-0.6-0.2c0-0.1-0.1-0.2,0-0.3l0.7-3.8l-2.8-2.7
			c-0.2-0.2-0.2-0.5,0-0.6c0.1-0.1,0.2-0.1,0.2-0.1l3.9-0.6l1.8-3.5c0.1-0.2,0.3-0.3,0.5-0.2c0.1,0,0.2,0.1,0.2,0.2l1.8,3.5l3.9,0.6
			c0.2,0,0.4,0.3,0.4,0.5c0,0.1-0.1,0.2-0.1,0.2l-2.8,2.7l0.7,3.8c0.1,0.2-0.1,0.5-0.3,0.5c-0.1,0-0.2,0-0.3,0l-3.5-1.8L130.6,36
			L130.6,36z"/>
	</g>
	<g id="star-fill-2">
		<path id="Trazado_28320-2" class="st11" d="M115.7,36c-0.2,0.1-0.5,0-0.6-0.2c0-0.1-0.1-0.2,0-0.3l0.7-3.8l-2.8-2.7
			c-0.2-0.2-0.2-0.5,0-0.6c0.1-0.1,0.2-0.1,0.2-0.1l3.9-0.6l1.8-3.5c0.1-0.2,0.3-0.3,0.6-0.2c0.1,0,0.2,0.1,0.2,0.2l1.8,3.5l3.9,0.6
			c0.2,0,0.4,0.3,0.4,0.5c0,0.1-0.1,0.2-0.1,0.2l-2.8,2.7l0.7,3.8c0.1,0.2-0.1,0.5-0.3,0.5c-0.1,0-0.2,0-0.3,0l-3.5-1.8L115.7,36
			L115.7,36z"/>
	</g>
	<g id="star-fill-3">
		<path id="Trazado_28319" class="st11" d="M100.8,36c-0.2,0.1-0.5,0-0.6-0.2c0-0.1-0.1-0.2,0-0.3l0.7-3.8L98,29
			c-0.2-0.2-0.2-0.5,0-0.6c0.1-0.1,0.2-0.1,0.2-0.1l3.9-0.6l1.8-3.5c0.1-0.2,0.3-0.3,0.6-0.2c0.1,0,0.2,0.1,0.2,0.2l1.8,3.5l3.9,0.6
			c0.2,0,0.4,0.3,0.4,0.5c0,0.1-0.1,0.2-0.1,0.2l-2.8,2.7l0.7,3.8c0.1,0.2-0.1,0.5-0.3,0.5c-0.1,0-0.2,0-0.3,0l-3.5-1.8L100.8,36
			L100.8,36z"/>
	</g>
	<g id="star-fill-4">
		<path id="Trazado_28320-3" class="st11" d="M85.9,36c-0.2,0.1-0.5,0-0.6-0.2c0-0.1-0.1-0.2,0-0.3l0.7-3.8L83.1,29
			c-0.2-0.2-0.2-0.5,0-0.6c0.1-0.1,0.2-0.1,0.2-0.1l4-0.6l1.8-3.5c0.1-0.2,0.3-0.3,0.6-0.2c0.1,0,0.2,0.1,0.2,0.2l1.8,3.5l3.9,0.6
			c0.2,0,0.4,0.3,0.4,0.5c0,0.1-0.1,0.2-0.1,0.2l-2.8,2.7l0.7,3.8c0.1,0.2-0.1,0.5-0.3,0.5c-0.1,0-0.2,0-0.3,0l-3.5-1.8L85.9,36
			L85.9,36z"/>
	</g>
	<g id="star-fill-5">
		<path id="Trazado_28319-2" class="st11" d="M71,36c-0.2,0.1-0.5,0-0.6-0.2c0-0.1,0-0.2,0-0.3l0.7-3.8L68.2,29
			c-0.2-0.2-0.2-0.5,0-0.6c0.1-0.1,0.2-0.1,0.2-0.1l3.9-0.6l1.8-3.5c0.1-0.2,0.3-0.3,0.5-0.2c0.1,0,0.2,0.1,0.2,0.2l1.8,3.5l3.9,0.6
			c0.2,0,0.4,0.3,0.4,0.5c0,0.1-0.1,0.2-0.1,0.2L78,31.7l0.7,3.8c0.1,0.2-0.1,0.5-0.3,0.5c-0.1,0-0.2,0-0.3,0l-3.5-1.8L71,36L71,36z
			"/>
	</g>
</g>
</svg>
