<?xml version="1.0" encoding="utf-8"?>
<!-- Generator: Adobe Illustrator 26.5.0, SVG Export Plug-In . SVG Version: 6.00 Build 0)  -->
<svg version="1.1" id="Capa_1" xmlns="http://www.w3.org/2000/svg" xmlns:xlink="http://www.w3.org/1999/xlink" x="0px" y="0px"
	 viewBox="0 0 138.6 60" style="enable-background:new 0 0 138.6 60;" xml:space="preserve">
<style type="text/css">
	.st0{fill:#39A7DF;}
	.st1{clip-path:url(#SVGID_00000168084393709695092480000011176289469717263268_);}
	.st2{clip-path:url(#SVGID_00000027562143860633585940000011695936678562070680_);}
	.st3{fill:#A35D16;}
	.st4{opacity:0.42;}
	.st5{clip-path:url(#SVGID_00000091696624486252529570000011715364459338153111_);}
	.st6{fill:#040405;}
	.st7{fill:#F29B67;}
	.st8{fill:#5F3014;}
	.st9{fill:#331F14;}
	.st10{opacity:0.27;}
	.st11{clip-path:url(#SVGID_00000119096232455030147560000007448027065779923847_);}
	.st12{fill:#8B4714;}
	.st13{fill:#6C3D1B;}
	.st14{fill:#FFD400;}
	.st15{fill:#FCD900;}
</style>
<circle id="Elipse_20" class="st0" cx="30" cy="30" r="30"/>
<g id="Chimpa">
	<g>
		<defs>
			<rect id="SVGID_1_" x="9.2" y="8.5" width="38.9" height="40.2"/>
		</defs>
		<clipPath id="SVGID_00000183222205024096193270000017899094967313665952_">
			<use xlink:href="#SVGID_1_"  style="overflow:visible;"/>
		</clipPath>
		<g style="clip-path:url(#SVGID_00000183222205024096193270000017899094967313665952_);">
			<g id="Grupo_13807">
				<g id="Grupo_13806">
					<g>
						<defs>
							<rect id="SVGID_00000084503214976460705110000010827137029948676779_" x="9.2" y="8.5" width="38.9" height="40.2"/>
						</defs>
						<clipPath id="SVGID_00000099663411468060871120000002705568982966707607_">
							<use xlink:href="#SVGID_00000084503214976460705110000010827137029948676779_"  style="overflow:visible;"/>
						</clipPath>
						<g style="clip-path:url(#SVGID_00000099663411468060871120000002705568982966707607_);">
							<g id="Grupo_13805">
								<path id="Trazado_28384" class="st3" d="M28.9,8.9c-1.2-0.2-2.5-0.4-3.7-0.4c-3.3,0.1-10,3-12,8.4c-3,7.9,4.8,15.1,1.1,20.1
									c-1.4,1.9-3.6,2.5-5.1,2.8l4.7,1.1c0,0.3-0.1,0.7-0.3,1c-0.4,0.6-1.1,0.9-1.7,0.9c1.4,0.5,3,0.2,4.2-0.7
									c0.1,0.5,0,1.1-0.2,1.6c-0.3,0.9-0.9,1.6-1.7,2.1c1-0.1,1.9-0.3,2.8-0.7c0.4-0.2,0.8-0.4,1.1-0.7l1.4,2.4l3-2.2l8.5,4.1
									l6.7-4.1l3.7,1.9l1.7-2.8l1.6,0.6c-0.1-1.1-0.3-2.2-0.4-3.4c0.6,1,1.5,1.8,2.5,2.3c-0.7-0.6-1.1-1.4-1.3-2.2
									c-0.1-0.6-0.1-1.1,0-1.7c0.2,0.3,0.4,0.7,0.6,1c0.5,0.6,1.1,1,1.8,1.3c-0.3-0.4-0.6-0.9-0.9-1.4c-0.7-1.5-1.1-3.1-1.2-4.7
									c-0.2-1.9-0.2-3.8-0.1-5.6c0.3-4.3,0.9-4.5,1.1-7.4c0.2-3,0.4-6.2-1.6-9c-1.5-1.9-3.6-3.3-6-3.8c-1.6-0.3-3.3-0.2-4.9,0.2
									c-0.5,0.1-1,0.3-1.6,0.4C31.7,9.7,30.3,9.2,28.9,8.9"/>
								<g id="Grupo_13801" class="st4">
									<g id="Grupo_13800">
										<g>
											<defs>
												<rect id="SVGID_00000136409155008176363380000016592117265882910336_" x="17.7" y="18.2" width="27.3" height="24"/>
											</defs>
											<clipPath id="SVGID_00000111877622400050025840000014831483758870372516_">
												<use xlink:href="#SVGID_00000136409155008176363380000016592117265882910336_"  style="overflow:visible;"/>
											</clipPath>
											<g style="clip-path:url(#SVGID_00000111877622400050025840000014831483758870372516_);">
												<g id="Grupo_13799">
													<path id="Trazado_28385" class="st6" d="M45,24.1c0,0-0.3-5.6-5-5.9c-5.3-0.3-7.5,2.1-8.3,3.6c-0.8-1.5-3-4.1-8.3-3.5
														c-5.3,0.6-5.6,6.1-5.6,6.1s-0.3,6.3,3.2,7.5l0,3.4c0,0,0.9,6.5,10,6.9l0,0c0.2,0,0.3,0,0.5,0s0.3,0,0.5,0l0,0
														c9.1-0.2,10.2-6.7,10.2-6.7l0-3.4C45.4,30.9,45,24.1,45,24.1"/>
												</g>
											</g>
										</g>
									</g>
								</g>
								<path id="Trazado_28386" class="st7" d="M44.6,23.6c0,0-0.3-5.6-5.1-5.9c-5.3-0.3-7.5,2.1-8.3,3.6c-0.8-1.5-3-4.1-8.3-3.5
									c-5.3,0.6-5.6,6.1-5.6,6.1s-0.3,6.3,3.2,7.5l0,3.4c0,0,0.9,6.5,10,6.9l0,0c0.2,0,0.3,0,0.5,0s0.3,0,0.5,0l0,0
									c9.1-0.2,10.2-6.7,10.2-6.7l0-3.4C44.9,30.4,44.6,23.6,44.6,23.6"/>
								<path id="Trazado_28387" class="st8" d="M28.1,28.3c0-0.6-0.5-1.1-1-1.1c-0.6,0-1.1,0.5-1.1,1c0,0.6,0.5,1.1,1,1.1
									C27.6,29.3,28.1,28.9,28.1,28.3L28.1,28.3"/>
								<path id="Trazado_28388" class="st8" d="M35.9,28.1c0-0.6-0.4-1-1-1s-1,0.4-1,1c0,0.5,0.4,1,1,1
									C35.5,29.1,35.9,28.6,35.9,28.1L35.9,28.1"/>
								<path id="Trazado_28389" class="st9" d="M38.7,34.1c0,0-8.9,7.4-15.9-0.2C27.7,37.1,38.7,34.1,38.7,34.1L38.7,34.1
									L38.7,34.1z"/>
								<path id="Trazado_28390" class="st9" d="M31.3,32.2c0,0-0.7,0.8-1.1,0.1v-0.7h1.2C31.4,31.6,31.3,32.2,31.3,32.2z"/>
								<path id="Trazado_28391" class="st9" d="M28.3,32.2c0,0,0.7,0.8,1.1,0.1v-0.7l-1.2,0L28.3,32.2L28.3,32.2z"/>
								<g id="Grupo_13804" class="st10">
									<g id="Grupo_13803">
										<g>
											<defs>
												<rect id="SVGID_00000077282830074005459120000006794297220189680010_" x="15.6" y="15.2" width="12.9" height="23.1"/>
											</defs>
											<clipPath id="SVGID_00000045608867672972027390000001120088073588514705_">
												<use xlink:href="#SVGID_00000077282830074005459120000006794297220189680010_"  style="overflow:visible;"/>
											</clipPath>
											<g style="clip-path:url(#SVGID_00000045608867672972027390000001120088073588514705_);">
												<g id="Grupo_13802">
													<path id="Trazado_28392" class="st12" d="M28.5,18.6c-0.6-0.6-1.4-1-2.3-1.2c-2-0.3-3.9,0.4-5.2,1.9
														c-2.5,3.4,1.9,8.1-0.1,13.5c-1,2.3-2.7,4.2-4.9,5.4c0.6-0.8,1-1.7,1.3-2.6c0.6-2,0.6-4.1,0.1-6.1
														c-0.7-3.9-2.2-5.1-1.8-8.2c0.1-0.5,0.2-1,0.3-1.4c0.8-2.3,2.7-4.1,5.1-4.7C24,14.8,27,16.1,28.5,18.6"/>
												</g>
											</g>
										</g>
									</g>
								</g>
								<path id="Trazado_28393" class="st3" d="M29.1,18.6c-0.6-0.6-1.4-1-2.3-1.2c-2-0.3-3.9,0.4-5.2,1.9
									c-2.5,3.4,1.9,8.1-0.1,13.5c-1,2.3-2.7,4.2-4.9,5.4c0.6-0.8,1-1.7,1.3-2.6c0.6-2,0.6-4.1,0.1-6.1c-0.7-3.9-2.2-5.1-1.8-8.2
									c0.1-0.5,0.2-1,0.3-1.4c0.8-2.3,2.7-4.1,5.1-4.7C24.6,14.8,27.6,16.1,29.1,18.6"/>
								<path id="Trazado_28394" class="st13" d="M31.2,21.3c-0.6-0.9-1.3-1.6-2.2-2.2c-1.6-1-3.5-1.5-5.3-1.2
									c1-0.4,2.1-0.5,3.2-0.4C29.8,18,31.1,21,31.2,21.3"/>
								<path id="Trazado_28395" class="st14" d="M16.3,16l3.9-1l-2.3,5L16.3,16L16.3,16z"/>
								<path id="Trazado_28396" class="st14" d="M16,15.8l-1.6-3.3L12.4,17L16,15.8L16,15.8z"/>
								<path id="Trazado_28397" class="st14" d="M17.2,16.5c-0.2,0.5-0.9,0.8-1.4,0.5c-0.5-0.2-0.8-0.9-0.6-1.4
									c0.2-0.5,0.9-0.8,1.4-0.6C17.2,15.4,17.5,16,17.2,16.5"/>
							</g>
						</g>
					</g>
				</g>
			</g>
		</g>
	</g>
</g>
<g id="estrellas-2">
	<g id="star-fill-6">
		<path id="Trazado_28320-4" class="st15" d="M127.5,36c-0.2,0.1-0.5,0-0.6-0.2c0-0.1-0.1-0.2,0-0.3l0.7-3.8l-2.8-2.7
			c-0.2-0.2-0.2-0.5,0-0.6c0.1-0.1,0.2-0.1,0.2-0.1l3.9-0.6l1.8-3.5c0.1-0.2,0.4-0.3,0.6-0.2c0.1,0,0.1,0.1,0.2,0.2l1.8,3.5l3.9,0.6
			c0.2,0,0.4,0.3,0.4,0.5c0,0.1-0.1,0.2-0.1,0.2l-2.8,2.7l0.7,3.8c0,0.2-0.1,0.5-0.3,0.5c-0.1,0-0.2,0-0.3,0l-3.5-1.8L127.5,36
			L127.5,36z"/>
	</g>
	<g id="star-fill-7">
		<path id="Trazado_28320-5" class="st15" d="M112.6,36c-0.2,0.1-0.5,0-0.6-0.2c0-0.1-0.1-0.2,0-0.3l0.7-3.8l-2.8-2.7
			c-0.2-0.2-0.2-0.5,0-0.6c0.1-0.1,0.2-0.1,0.2-0.1l3.9-0.6l1.8-3.5c0.1-0.2,0.3-0.3,0.6-0.2c0.1,0,0.2,0.1,0.2,0.2l1.8,3.5l3.9,0.6
			c0.2,0,0.4,0.3,0.4,0.5c0,0.1-0.1,0.2-0.1,0.2l-2.8,2.7l0.7,3.8c0.1,0.2-0.1,0.5-0.3,0.5c-0.1,0-0.2,0-0.3,0l-3.5-1.8L112.6,36
			L112.6,36z"/>
	</g>
	<g id="star-fill-8">
		<path id="Trazado_28319-3" class="st15" d="M97.8,36c-0.2,0.1-0.5,0-0.6-0.2c0-0.1-0.1-0.2,0-0.3l0.7-3.8L95,29
			c-0.2-0.2-0.2-0.5,0-0.6c0.1-0.1,0.2-0.1,0.2-0.1l3.9-0.6l1.8-3.5c0.1-0.2,0.3-0.3,0.6-0.2c0.1,0,0.2,0.1,0.2,0.2l1.8,3.5l3.9,0.6
			c0.2,0,0.4,0.3,0.4,0.5c0,0.1-0.1,0.2-0.1,0.2l-2.8,2.7l0.7,3.8c0.1,0.2-0.1,0.5-0.3,0.5c-0.1,0-0.2,0-0.3,0l-3.5-1.8L97.8,36
			L97.8,36z"/>
	</g>
	<g id="star-fill-9">
		<path id="Trazado_28320-6" class="st15" d="M82.9,36c-0.2,0.1-0.5,0-0.6-0.2c0-0.1-0.1-0.2,0-0.3l0.7-3.8L80.1,29
			c-0.2-0.2-0.2-0.5,0-0.6c0.1-0.1,0.2-0.1,0.2-0.1l4-0.6l1.8-3.5c0.1-0.2,0.3-0.3,0.6-0.2c0.1,0,0.2,0.1,0.2,0.2l1.8,3.5l3.9,0.6
			c0.2,0,0.4,0.3,0.4,0.5c0,0.1-0.1,0.2-0.1,0.2l-2.8,2.7l0.7,3.8c0.1,0.2-0.1,0.5-0.3,0.5c-0.1,0-0.2,0-0.3,0l-3.5-1.8L82.9,36
			L82.9,36z"/>
	</g>
	<g id="star-fill-10">
		<path id="Trazado_28319-4" class="st15" d="M68,36c-0.2,0.1-0.5,0-0.6-0.2c0-0.1,0-0.2,0-0.3l0.7-3.8L65.2,29
			c-0.2-0.2-0.2-0.5,0-0.6c0.1-0.1,0.2-0.1,0.2-0.1l4-0.6l1.8-3.5c0.1-0.2,0.3-0.3,0.5-0.2c0.1,0,0.2,0.1,0.2,0.2l1.8,3.5l3.9,0.6
			c0.2,0,0.4,0.3,0.4,0.5c0,0.1-0.1,0.2-0.1,0.2L75,31.7l0.7,3.8c0.1,0.2-0.1,0.5-0.3,0.5c-0.1,0-0.2,0-0.3,0l-3.5-1.8L68,36L68,36z
			"/>
	</g>
</g>
</svg>
