<svg id="Grupo_5550" data-name="Grupo 5550" xmlns="http://www.w3.org/2000/svg" xmlns:xlink="http://www.w3.org/1999/xlink" width="19.738" height="19.733" viewBox="0 0 19.738 19.733">
  <defs>
    <clipPath id="clip-path">
      <rect id="Rectángulo_4551" data-name="Rectángulo 4551" width="19.738" height="19.733" fill="#01253b"/>
    </clipPath>
  </defs>
  <g id="Grupo_5549" data-name="Grupo 5549" clip-path="url(#clip-path)">
    <path id="Trazado_11870" data-name="Trazado 11870" d="M17.643,3.426a2.5,2.5,0,0,1-.221.3Q9.635,11.515,1.847,19.3a1.154,1.154,0,0,1-.863.428A.946.946,0,0,1,.1,19.152a.954.954,0,0,1,.14-1.05,3.126,3.126,0,0,1,.238-.246Q8.242,10.088,16.01,2.322a3.491,3.491,0,0,1,.29-.236L16.264,2h-.318q-4.487,0-8.974,0a1.752,1.752,0,0,1-.491-.052.981.981,0,0,1-.7-1.052A1,1,0,0,1,6.72,0C6.8,0,6.886,0,6.969,0h9.6a3,3,0,0,1,3.17,3.159q0,4.861,0,9.722a1,1,0,0,1-.726,1.037.932.932,0,0,1-1.083-.4,1.507,1.507,0,0,1-.176-.706c-.011-2.992-.008-5.983-.008-8.975V3.495Z" transform="translate(0 0)" fill="#01253b"/>
  </g>
</svg>
