<svg width="592" height="542" viewBox="0 0 592 542" fill="none" xmlns="http://www.w3.org/2000/svg">
<path d="M310.568 307.652H252.6C244.222 411.23 220.316 491.45 176.682 542H386.487C340.279 490.7 317.332 409.556 310.568 307.652Z" fill="#E8F0FB"/>
<path d="M205.888 542C206.582 539.254 206.95 536.376 206.95 533.412C206.95 514.185 191.45 498.595 172.327 498.595C168.046 498.595 163.949 499.382 160.164 500.809C151.216 481.468 131.722 468.057 109.108 468.057C80.5744 468.057 57.0051 489.409 53.3267 517.09C52.7645 517.057 52.1986 517.035 51.6253 517.035C40.7079 517.035 31.2677 523.372 26.7332 532.588C23.8743 529.975 20.0747 528.383 15.9039 528.383C7.88215 528.383 1.23101 534.28 0 542H205.888Z" fill="#E8F0FB"/>
<path d="M591.81 542C591.847 541.531 591.873 541.061 591.873 540.585C591.873 530.969 584.123 523.176 574.561 523.176C565 523.176 557.25 530.969 557.25 540.585C557.25 541.061 557.276 541.534 557.312 542H591.81Z" fill="#E8F0FB"/>
<path d="M552.222 542C552.314 540.98 552.369 539.953 552.369 538.911C552.369 520.15 537.244 504.936 518.584 504.936C514.45 504.936 510.492 505.687 506.832 507.05C505.065 482.454 484.663 463.051 459.752 463.051C434.842 463.051 412.548 484.302 412.548 510.52C412.548 512.678 412.695 514.799 412.97 516.883C409.755 515.889 406.338 515.353 402.795 515.353C386.472 515.353 372.799 526.716 369.143 542H552.218H552.222Z" fill="#E8F0FB"/>
<path d="M245.685 294.664H317.235V315.158C317.235 315.298 317.121 315.417 316.977 315.417H245.939C245.799 315.417 245.682 315.302 245.682 315.158V294.664H245.685Z" fill="#36A9E1"/>
<path d="M225.691 194.227C225.691 194.227 198.704 230.377 179.519 252.608C153.627 282.61 160.506 286.435 183.693 369.645C242.708 329.68 217.537 272.016 238.725 260.394C277.393 239.191 225.687 194.227 225.687 194.227H225.691Z" fill="#FDDB00"/>
<path d="M337.216 194.226C337.216 194.226 364.203 230.377 383.388 252.608C409.28 282.61 402.401 286.435 379.214 369.645C320.199 329.68 345.37 272.016 324.182 260.394C285.513 239.191 337.22 194.226 337.22 194.226H337.216Z" fill="#FDDB00"/>
<path d="M354.856 165.714C354.856 96.0287 314.806 33.8114 294.077 6.27049C287.9 -1.93302 275.7 -2.11778 269.277 5.89727C248.155 32.2593 208.057 91.6202 208.057 162.326C208.057 190.894 227.525 272.023 237.674 292.698C240.107 297.654 245.108 300.806 250.602 300.806H313.861C319.355 300.806 324.356 297.654 326.789 292.698C336.938 272.023 354.856 194.279 354.856 165.71V165.714Z" fill="#FDDB00"/>
<path d="M326.791 292.699C336.94 272.024 354.858 194.279 354.858 165.711C354.858 123.267 340.001 83.5943 323.7 52.8422C311.001 46.2647 297.019 42.6174 282.335 42.6174C266.089 42.6174 250.707 47.0776 236.967 55.0372C221.53 84.1782 208.059 121.345 208.059 162.326C208.059 190.894 227.527 272.024 237.676 292.699C240.109 297.654 245.11 300.806 250.604 300.806H313.863C319.357 300.806 324.358 297.654 326.791 292.699Z" fill="#36A9E1"/>
<g style="mix-blend-mode:multiply">
<path d="M284.269 177.835C309.159 177.835 329.335 157.545 329.335 132.516C329.335 107.487 309.159 87.1971 284.269 87.1971C259.38 87.1971 239.203 107.487 239.203 132.516C239.203 157.545 259.38 177.835 284.269 177.835Z" fill="#E4D4AB"/>
</g>
<path d="M326.169 139.208C330.157 114.503 313.474 91.2242 288.906 87.2139C264.338 83.2037 241.189 99.9805 237.201 124.686C233.213 149.392 249.897 172.67 274.464 176.681C299.032 180.691 322.181 163.914 326.169 139.208Z" fill="#6481BF"/>
<path d="M238.632 132.616C238.632 107.588 258.81 87.2969 283.698 87.2969C288.277 87.2969 292.694 87.9879 296.857 89.2665C292.113 87.5593 287.006 86.6244 281.677 86.6244C256.789 86.6244 236.611 106.915 236.611 131.943C236.611 152.367 250.05 169.631 268.518 175.292C251.101 169.025 238.636 152.289 238.636 132.619L238.632 132.616Z" fill="#36A9E1"/>
<g style="mix-blend-mode:multiply">
<path d="M285.679 171.423C285.679 173.312 284.154 174.845 282.276 174.845C280.398 174.845 278.873 173.312 278.873 171.423C278.873 169.535 280.398 168.001 282.276 168.001C284.154 168.001 285.679 169.535 285.679 171.423Z" fill="#CECDC9"/>
</g>
<g style="mix-blend-mode:multiply">
<path d="M285.466 93.6118C285.466 95.5 283.941 97.0336 282.063 97.0336C280.185 97.0336 278.66 95.5 278.66 93.6118C278.66 91.7235 280.185 90.1899 282.063 90.1899C283.941 90.1899 285.466 91.7235 285.466 93.6118Z" fill="#CECDC9"/>
</g>
<g style="mix-blend-mode:multiply">
<path d="M314.561 106.615C314.561 108.503 313.036 110.037 311.159 110.037C309.281 110.037 307.756 108.503 307.756 106.615C307.756 104.727 309.281 103.193 311.159 103.193C313.036 103.193 314.561 104.727 314.561 106.615Z" fill="#CECDC9"/>
</g>
<g style="mix-blend-mode:multiply">
<path d="M257.997 160.36C257.997 162.248 256.472 163.781 254.594 163.781C252.716 163.781 251.191 162.252 251.191 160.36C251.191 158.468 252.716 156.938 254.594 156.938C256.472 156.938 257.997 158.468 257.997 160.36Z" fill="#CECDC9"/>
</g>
<g style="mix-blend-mode:multiply">
<path d="M314.561 158.848C314.561 160.736 313.036 162.27 311.159 162.27C309.281 162.27 307.756 160.736 307.756 158.848C307.756 156.96 309.281 155.426 311.159 155.426C313.036 155.426 314.561 156.96 314.561 158.848Z" fill="#CECDC9"/>
</g>
<g style="mix-blend-mode:multiply">
<path d="M256.636 106.072C256.636 107.96 255.111 109.494 253.233 109.494C251.355 109.494 249.83 107.96 249.83 106.072C249.83 104.184 251.355 102.65 253.233 102.65C255.111 102.65 256.636 104.184 256.636 106.072Z" fill="#CECDC9"/>
</g>
<g style="mix-blend-mode:multiply">
<path d="M324.62 132.615C324.62 134.504 323.099 136.037 321.217 136.037C319.336 136.037 317.814 134.504 317.814 132.615C317.814 130.727 319.336 129.194 321.217 129.194C323.099 129.194 324.62 130.727 324.62 132.615Z" fill="#CECDC9"/>
</g>
<g style="mix-blend-mode:multiply">
<path d="M246.093 132.615C246.093 134.504 244.568 136.037 242.69 136.037C240.812 136.037 239.287 134.504 239.287 132.615C239.287 130.727 240.812 129.194 242.69 129.194C244.568 129.194 246.093 130.727 246.093 132.615Z" fill="#CECDC9"/>
</g>
<path opacity="0.74" d="M281.672 165.189C299.931 165.189 314.733 150.304 314.733 131.943C314.733 113.581 299.931 98.6965 281.672 98.6965C263.413 98.6965 248.611 113.581 248.611 131.943C248.611 150.304 263.413 165.189 281.672 165.189Z" fill="#B4C5E7"/>
<g style="mix-blend-mode:multiply">
<path d="M252.404 136.037C252.404 117.675 267.205 102.79 285.465 102.79C294.019 102.79 301.817 106.057 307.685 111.419C301.633 103.67 292.23 98.6924 281.672 98.6924C263.413 98.6924 248.611 113.577 248.611 131.939C248.611 141.698 252.793 150.474 259.452 156.557C255.038 150.907 252.404 143.778 252.404 136.037Z" fill="#DDEBF1"/>
</g>
<path d="M285.079 170.891C285.079 172.779 283.554 174.313 281.676 174.313C279.798 174.313 278.273 172.779 278.273 170.891C278.273 169.003 279.798 167.469 281.676 167.469C283.554 167.469 285.079 169.003 285.079 170.891Z" fill="#848281"/>
<g style="mix-blend-mode:screen">
<path d="M281.674 172.79C280.634 172.79 279.785 171.936 279.785 170.891C279.785 169.845 280.634 168.991 281.674 168.991C282.714 168.991 283.563 169.845 283.563 170.891C283.563 171.936 282.714 172.79 281.674 172.79Z" fill="#858585"/>
</g>
<path d="M284.862 93.0794C284.862 94.9677 283.337 96.5012 281.459 96.5012C279.582 96.5012 278.057 94.9677 278.057 93.0794C278.057 91.1911 279.582 89.6576 281.459 89.6576C283.337 89.6576 284.862 91.1911 284.862 93.0794Z" fill="#848281"/>
<g style="mix-blend-mode:screen">
<path d="M281.457 94.9784C280.417 94.9784 279.568 94.1248 279.568 93.0791C279.568 92.0333 280.417 91.1797 281.457 91.1797C282.497 91.1797 283.346 92.0333 283.346 93.0791C283.346 94.1248 282.497 94.9784 281.457 94.9784Z" fill="#858585"/>
</g>
<path d="M313.958 106.083C313.958 107.971 312.433 109.505 310.555 109.505C308.677 109.505 307.152 107.971 307.152 106.083C307.152 104.195 308.677 102.661 310.555 102.661C312.433 102.661 313.958 104.195 313.958 106.083Z" fill="#848281"/>
<g style="mix-blend-mode:screen">
<path d="M310.559 107.982C309.519 107.982 308.67 107.129 308.67 106.083C308.67 105.037 309.519 104.183 310.559 104.183C311.599 104.183 312.447 105.037 312.447 106.083C312.447 107.129 311.599 107.982 310.559 107.982Z" fill="#858585"/>
</g>
<path d="M257.391 159.827C257.391 161.715 255.866 163.249 253.989 163.249C252.111 163.249 250.586 161.719 250.586 159.827C250.586 157.935 252.111 156.405 253.989 156.405C255.866 156.405 257.391 157.935 257.391 159.827Z" fill="#848281"/>
<g style="mix-blend-mode:screen">
<path d="M253.994 161.726C252.951 161.726 252.105 160.873 252.105 159.827C252.105 158.781 252.954 157.928 253.994 157.928C255.034 157.928 255.883 158.781 255.883 159.827C255.883 160.873 255.034 161.726 253.994 161.726Z" fill="#858585"/>
</g>
<path d="M313.958 158.316C313.958 160.204 312.433 161.738 310.555 161.738C308.677 161.738 307.152 160.204 307.152 158.316C307.152 156.428 308.677 154.894 310.555 154.894C312.433 154.894 313.958 156.428 313.958 158.316Z" fill="#848281"/>
<g style="mix-blend-mode:screen">
<path d="M310.559 160.215C311.602 160.215 312.447 159.365 312.447 158.316C312.447 157.267 311.602 156.417 310.559 156.417C309.516 156.417 308.67 157.267 308.67 158.316C308.67 159.365 309.516 160.215 310.559 160.215Z" fill="#858585"/>
</g>
<path d="M256.034 105.54C256.034 107.429 254.513 108.962 252.631 108.962C250.75 108.962 249.229 107.429 249.229 105.54C249.229 103.652 250.754 102.118 252.631 102.118C254.509 102.118 256.034 103.652 256.034 105.54Z" fill="#848281"/>
<g style="mix-blend-mode:screen">
<path d="M252.631 107.439C251.591 107.439 250.742 106.586 250.742 105.54C250.742 104.494 251.591 103.641 252.631 103.641C253.671 103.641 254.52 104.494 254.52 105.54C254.52 106.586 253.671 107.439 252.631 107.439Z" fill="#858585"/>
</g>
<path d="M324.014 132.087C324.014 133.975 322.489 135.509 320.612 135.509C318.734 135.509 317.209 133.975 317.209 132.087C317.209 130.199 318.734 128.665 320.612 128.665C322.489 128.665 324.014 130.199 324.014 132.087Z" fill="#848281"/>
<g style="mix-blend-mode:screen">
<path d="M320.613 133.986C319.573 133.986 318.725 133.133 318.725 132.087C318.725 131.041 319.573 130.187 320.613 130.187C321.653 130.187 322.502 131.041 322.502 132.087C322.502 133.133 321.657 133.986 320.613 133.986Z" fill="#858585"/>
</g>
<path d="M245.487 132.087C245.487 133.975 243.962 135.509 242.084 135.509C240.207 135.509 238.682 133.975 238.682 132.087C238.682 130.199 240.207 128.665 242.084 128.665C243.962 128.665 245.487 130.199 245.487 132.087Z" fill="#848281"/>
<g style="mix-blend-mode:screen">
<path d="M242.086 133.986C241.046 133.986 240.197 133.133 240.197 132.087C240.197 131.041 241.046 130.187 242.086 130.187C243.126 130.187 243.975 131.041 243.975 132.087C243.975 133.133 243.126 133.986 242.086 133.986Z" fill="#858585"/>
</g>
<g style="mix-blend-mode:screen" opacity="0.61">
<path d="M302.285 133.096C298.551 147.596 283.834 156.306 269.419 152.548C264.98 151.391 261.085 149.185 257.932 146.262C261.529 152.518 267.519 157.381 275.026 159.336C289.887 163.205 305.056 154.229 308.903 139.286C312.052 127.058 306.643 114.627 296.435 108.389C302.123 114.912 304.611 124.057 302.285 133.092V133.096Z" fill="#7A7A7A"/>
</g>
<mask id="mask0_787_721" style="mask-type:alpha" maskUnits="userSpaceOnUse" x="248" y="98" width="67" height="68">
<path opacity="0.74" d="M281.672 165.189C299.931 165.189 314.733 150.304 314.733 131.943C314.733 113.581 299.931 98.6965 281.672 98.6965C263.413 98.6965 248.611 113.581 248.611 131.943C248.611 150.304 263.413 165.189 281.672 165.189Z" fill="#B4C5E7"/>
</mask>
<g mask="url(#mask0_787_721)">
<path d="M282.695 109.14C282.695 109.14 281.552 111.342 283.025 111.408C289.21 111.686 304.754 113.408 306.499 123.758C308.91 138.055 307.877 159.565 307.877 159.565L306.227 159.27L308.138 162.784L304.974 162.041L305.639 165.57L302.519 164.184L299.477 169.391L294.692 165.873L281.184 172.436L270.616 165.88L264.766 168.877L262.017 164.402L259.467 165.407L260.059 161.502L256.95 161.66L258.636 157.426L255.73 159.218C255.73 159.218 254.866 134.929 256.814 123.318C258.339 114.224 268.521 111.974 274.871 111.464C275.463 111.416 276.499 109.819 277.017 109.797C277.017 109.797 277.895 111.638 278.292 111.327C279.656 110.252 282.695 109.143 282.695 109.143V109.14Z" fill="#654221"/>
<g filter="url(#filter0_d_787_721)">
<path d="M259.971 132.575C259.971 132.575 260.398 123.625 267.475 123.167C275.273 122.664 278.481 126.437 279.708 128.769C280.917 126.311 284.129 122.276 291.97 123.204C299.72 124.12 300.227 132.782 300.227 132.782C300.227 132.782 300.683 142.848 295.406 144.703L295.336 150.113C295.336 150.113 294.013 160.511 280.594 161.198V161.21C280.362 161.217 280.134 161.224 279.91 161.224C279.69 161.232 279.465 161.235 279.238 161.235V161.224C265.807 161.051 264.256 150.752 264.256 150.752L264.223 145.298C259.409 143.343 259.971 132.575 259.971 132.575Z" fill="#D8A57C"/>
</g>
<path d="M283.154 139.999C283.143 139.071 283.882 138.306 284.804 138.295C285.73 138.284 286.487 139.027 286.498 139.958C286.509 140.886 285.77 141.651 284.844 141.662C283.922 141.673 283.165 140.93 283.15 140.003L283.154 139.999Z" fill="#654221"/>
<path d="M269.127 139.518C269.116 138.635 269.822 137.907 270.7 137.896C271.578 137.885 272.302 138.595 272.313 139.478C272.324 140.365 271.619 141.089 270.74 141.1C269.862 141.111 269.138 140.402 269.127 139.515V139.518Z" fill="#654221"/>
<path d="M290.213 149.887C290.213 149.887 277.899 159.299 269.043 148.63C275.448 153.205 290.213 149.872 290.213 149.872V149.887Z" fill="#3E2C1F"/>
<path d="M275.411 145.93C275.411 145.93 276.414 147.186 277.105 146.152L277.16 144.973L275.238 144.88L275.411 145.926V145.93Z" fill="#3E2C1F"/>
<path d="M280.182 146.118C280.182 146.118 279.076 147.285 278.477 146.195L278.521 145.017L280.446 145.087L280.185 146.118H280.182Z" fill="#3E2C1F"/>
</g>
<path d="M290.846 289.883C290.846 333.934 286.499 362.362 281.457 369.645C276.239 362.059 272.068 333.934 272.068 289.883C272.068 245.832 281.457 210.12 281.457 210.12C281.457 210.12 290.846 245.832 290.846 289.883Z" fill="#FDDB00"/>
<g style="mix-blend-mode:screen">
<path d="M217.241 177.51C217.241 103.878 260.271 42.0631 282.937 14.6109C282.959 14.585 282.977 14.5591 282.999 14.537C285.12 11.9983 282.422 8.35109 279.306 9.56314C276.892 10.5017 274.672 12.0427 272.898 14.197C251.776 39.7794 211.678 97.385 211.678 165.999C211.678 193.325 229.165 260.897 239.425 282.304C228.636 248.396 217.245 200.819 217.245 177.513L217.241 177.51Z" fill="#513129"/>
</g>
<defs>
<filter id="filter0_d_787_721" x="259.951" y="123.068" width="40.5552" height="38.4376" filterUnits="userSpaceOnUse" color-interpolation-filters="sRGB">
<feFlood flood-opacity="0" result="BackgroundImageFix"/>
<feColorMatrix in="SourceAlpha" type="matrix" values="0 0 0 0 0 0 0 0 0 0 0 0 0 0 0 0 0 0 127 0" result="hardAlpha"/>
<feOffset dx="0.27" dy="0.27"/>
<feColorMatrix type="matrix" values="0 0 0 0 0.0235294 0 0 0 0 0.027451 0 0 0 0 0.027451 0 0 0 0.42 0"/>
<feBlend mode="normal" in2="BackgroundImageFix" result="effect1_dropShadow_787_721"/>
<feBlend mode="normal" in="SourceGraphic" in2="effect1_dropShadow_787_721" result="shape"/>
</filter>
</defs>
</svg>
