<svg xmlns="http://www.w3.org/2000/svg" width="161.265" height="326.365" viewBox="0 0 161.265 326.365">
  <g id="Grupo_10659" data-name="Grupo 10659" transform="translate(-2189.489 -1770.948)">
    <path id="Trazado_20559" data-name="Trazado 20559" d="M1781.909,216.035a37.588,37.588,0,0,1,23.01-7.711q14.362,0,23.229,8.344a27.626,27.626,0,0,1,8.868,21.018,32.435,32.435,0,0,1-5.812,18.378,38.255,38.255,0,0,1-15.893,13.625c-6.97,3.31-17.9,5.529-31.418,6.654v50.7c22.537.284,40.394,5.281,52.646,15s18.191,21.619,18.191,35.7a43.817,43.817,0,0,1-13.718,32.531c-9.083,8.872-20.574,13.309-34.373,13.309q-19.859,0-32.842-11.724a32.705,32.705,0,0,1-5.682-6.329v67.406a123.058,123.058,0,0,0,35.337,4.935q47.737,0,78.567-29.045t30.833-70.871q0-28.518-15.953-49.536t-44.257-29.468q21.548-10.56,32.847-27.673a67.164,67.164,0,0,0,11.3-37.812q0-33.374-25.877-57.668T1806.836,151.5a103.7,103.7,0,0,0-38.718,7.094V235c2.253-7.708,7.175-14.031,13.791-18.96" transform="translate(437.898 1619.447)" fill="#fddb00"/>
    <path id="Trazado_20566" data-name="Trazado 20566" d="M1762.645,237.344v-76.4a83.085,83.085,0,0,0-16.527,9.009V238.58h16.136a2.751,2.751,0,0,0,.391-1.236" transform="translate(443.371 1617.098)" fill="#dea22c"/>
    <path id="Trazado_20567" data-name="Trazado 20567" d="M1746.118,489.286v60.735a88.456,88.456,0,0,0,16.527,6.93V489.546a.4.4,0,0,0-.238-.26Z" transform="translate(443.371 1535.426)" fill="#dea22c"/>
  </g>
</svg>
