<svg xmlns="http://www.w3.org/2000/svg" width="162.887" height="318.377" viewBox="0 0 162.887 318.377">
  <g id="Grupo_10660" data-name="Grupo 10660" transform="translate(-1608.014 -1770.943)">
    <path id="Trazado_20564" data-name="Trazado 20564" d="M989.4,447.695l-17.279,17.27v78.584H989.4Z" transform="translate(635.896 1545.771)" fill="#dea22c"/>
    <g id="Grupo_10656" data-name="Grupo 10656">
      <path id="Trazado_20558" data-name="Trazado 20558" d="M1007.946,221c8.281-9.433,18.565-14.153,30.987-14.153q18.424,0,30.089,11.724,11.694,11.723,11.68,29.678,0,17.324-11.292,38.763c-7.524,14.294-22.539,33.2-45.312,56.717l-28.98,30.29v95.854h145.608V415.029H1032.189l34.175-36.6q41.012-43.514,56.442-75.335,15.429-31.893,15.433-59.531,0-23.234-12.732-45.714-12.733-22.5-33.953-34.423c-14.149-7.954-30.334-11.93-48.828-11.93-17.836,0-34.028,3.415-47.608,10.231V254.75c1.509-13.991,5.365-25.249,12.828-33.753" transform="translate(630.175 1619.449)" fill="#fddb00"/>
      <path id="Trazado_20565" data-name="Trazado 20565" d="M989.4,258.139V165.114a95.953,95.953,0,0,0-17.279,10.38v87.413h16.724c.056-1.5.555-3.234.555-4.768" transform="translate(635.896 1616.061)" fill="#dea22c"/>
    </g>
  </g>
</svg>
