<svg xmlns="http://www.w3.org/2000/svg" width="175.188" height="323.133" viewBox="0 0 175.188 323.133">
  <g id="Grupo_10657" data-name="Grupo 10657" transform="translate(-3336.516 -1766.187)">
    <path id="Trazado_24782" data-name="Trazado 24782" d="M3327.064,333.358a54.345,54.345,0,0,1,22.406-4.933c14.13,0,26.215,4.685,36.159,14.048s14.937,21.341,14.937,35.924q0,22.52-16.009,36.889-16.025,14.371-38.938,14.37a61.767,61.767,0,0,1-30.389-7.613,1.958,1.958,0,0,0-1.112-.53V482.83a175.725,175.725,0,0,0,29.828,2.589q51.762,0,87.971-31.634,36.1-31.634,36.158-77.747,0-45.683-32.633-74.958Q3402.781,271.8,3353.5,271.8a90.154,90.154,0,0,0-11.33.75,111.742,111.742,0,0,0-12.076,2.464l14.792-57.052h119.125V162.286H3314.118V340.864c5.259-3.062,8.654-5.574,12.946-7.506" transform="translate(43.629 1603.901)" fill="#fddb00"/>
    <path id="Trazado_24783" data-name="Trazado 24783" d="M3313.349,496.162c-8.685-4.663-15.441-11.215-21.231-19.657v76.119a178.08,178.08,0,0,0,21.231,5.175Z" transform="translate(44.398 1528.552)" fill="#dea22c"/>
    <path id="Trazado_24784" data-name="Trazado 24784" d="M3313.518,340.3V162.286h-21.4V345.45l11.872,2.122c3.241-2.708,6.61-5.121,9.529-7.27" transform="translate(47.478 1603.901)" fill="#dea22c"/>
  </g>
</svg>
