<svg width="16" height="24" viewBox="0 0 16 24" fill="none" xmlns="http://www.w3.org/2000/svg">
<path d="M9.41361 15.8669V17.8459H5.7136C5.7016 17.8329 5.67057 17.8148 5.67057 17.7978C5.6397 16.835 5.68584 15.8715 5.80857 14.916C5.93684 14.2606 6.25824 13.6586 6.73136 13.1872C7.20448 12.7159 7.80773 12.3968 8.4636 12.271C9.29911 12.0737 10.0418 11.596 10.568 10.9177C11.0942 10.2394 11.3722 9.40128 11.3556 8.54295C11.3599 8.01081 11.25 7.48404 11.0332 6.99803C10.8165 6.51202 10.498 6.07816 10.0992 5.72581C9.70036 5.37346 9.23055 5.11078 8.72154 4.95555C8.21253 4.80032 7.67615 4.75606 7.1486 4.82591C6.26511 4.87757 5.43206 5.25455 4.80998 5.88401C4.18789 6.51348 3.82081 7.35081 3.77958 8.23484C3.77958 8.29484 3.76557 8.35404 3.75657 8.43504H0.0655906C-0.467409 5.62104 2.2286 2.07688 5.5236 1.24388C7.43133 0.730963 9.4633 0.972139 11.1979 1.91746C12.9325 2.86278 14.2366 4.43983 14.8396 6.32103C15.1182 7.30413 15.1984 8.33273 15.0757 9.34715C14.953 10.3616 14.6299 11.3414 14.1249 12.2297C13.62 13.1181 12.9434 13.897 12.1346 14.5215C11.3257 15.1459 10.4008 15.6033 9.41361 15.8669Z" fill="#ffffff"/>
<path d="M7.54267 19.741C8.05567 19.741 8.56965 19.751 9.08265 19.741C9.32865 19.734 9.42665 19.7999 9.42365 20.0659C9.40965 21.1039 9.41165 22.1429 9.42365 23.1819C9.42365 23.4279 9.36464 23.526 9.09864 23.523C8.06064 23.51 7.02167 23.511 5.98267 23.523C5.73667 23.523 5.63867 23.465 5.64167 23.198C5.65567 22.159 5.65767 21.121 5.64167 20.083C5.64167 19.793 5.74162 19.7339 6.00562 19.7419C6.51562 19.7529 7.02967 19.741 7.54267 19.741Z" fill="#ffffff"/>
</svg>
