<svg width="24" height="23" viewBox="0 0 24 23" fill="none" xmlns="http://www.w3.org/2000/svg">
<path d="M0 10.781V10.7337C0.0195243 10.7216 0.038193 10.7082 0.055883 10.6936L5.5503 5.62876C7.48539 3.8462 9.42016 2.06362 11.3547 0.281053C11.4497 0.170345 11.573 0.0875609 11.7114 0.0414246C11.8498 -0.00471177 11.9982 -0.0125131 12.1406 0.0190394C12.3683 0.0918209 12.577 0.214223 12.7518 0.377202C16.4474 3.78631 20.1385 7.19935 23.8253 10.6166C23.8751 10.6629 23.9345 10.704 24 10.7511L22.8246 12.0051L21.3043 10.594V10.9249C21.3043 14.476 21.3043 18.0274 21.3043 21.5785C21.325 21.7152 21.3134 21.8547 21.2704 21.9861C21.2274 22.1176 21.1541 22.2372 21.0566 22.3351C20.959 22.4331 20.8398 22.5069 20.7086 22.5505C20.5774 22.5941 20.4378 22.6062 20.301 22.5861H14.5158C14.4328 22.5861 14.3499 22.5791 14.2416 22.5748V16.1276H9.72958V22.5407C9.70122 22.5511 9.672 22.559 9.64225 22.5643C7.61227 22.5643 5.58259 22.5643 3.55319 22.5643C3.43136 22.5658 3.31068 22.5407 3.19953 22.4908C3.08839 22.4409 2.98944 22.3673 2.90962 22.2752C2.74127 22.0666 2.66022 21.801 2.68345 21.534C2.68345 17.9828 2.68345 14.4315 2.68345 10.8803V10.5678L1.16664 11.9789C1.07233 11.8802 0.992007 11.7964 0.912542 11.7169L0 10.781ZM9.45539 8.96799C9.45434 9.30441 9.52 9.63779 9.64854 9.94868C9.77709 10.2596 9.96598 10.5418 10.2043 10.7793C10.4426 11.0167 10.7257 11.2045 11.037 11.3319C11.3484 11.4592 11.6819 11.5237 12.0183 11.5214C12.6931 11.5121 13.3374 11.2389 13.8132 10.7603C14.289 10.2817 14.5584 9.63576 14.5638 8.96096C14.5471 8.28304 14.2674 7.63839 13.7839 7.16289C13.3004 6.6874 12.651 6.41834 11.9729 6.41289C11.3029 6.42609 10.6645 6.70086 10.1942 7.17824C9.72382 7.65563 9.45868 8.29782 9.45539 8.96799Z" fill="white"/>
<path d="M7.96289 8.85875C7.98796 7.79368 8.42839 6.78045 9.19016 6.03566C9.95192 5.29086 10.9747 4.87355 12.04 4.87248C13.1176 4.86284 14.1568 5.27178 14.9387 6.01327C15.7206 6.75477 16.1841 7.77092 16.2315 8.84745C16.2028 9.91995 15.7552 10.9385 14.9847 11.685C14.2141 12.4316 13.1819 12.8468 12.109 12.8416C11.5747 12.8545 11.0431 12.7614 10.545 12.5679C10.0468 12.3743 9.59188 12.0839 9.20644 11.7136C8.821 11.3433 8.51266 10.9006 8.29923 10.4106C8.0858 9.92058 7.9715 9.39314 7.96289 8.85875Z" fill="white"/>
</svg>
