<svg width="9" height="23" viewBox="0 0 9 23" fill="none" xmlns="http://www.w3.org/2000/svg">
<path d="M6.87598 20.1829H8.52698V22.948H0.000976562V20.2239H1.88397V9.8689H0.0309753V6.97583H6.87698L6.87598 20.1829Z" fill="#ffffff"/>
<path d="M4.15199 4.96179C3.67433 4.97473 3.20425 4.84063 2.80537 4.57752C2.4065 4.3144 2.0981 3.93504 1.92198 3.49085C1.71546 3.05329 1.64603 2.56354 1.72276 2.08582C1.7995 1.6081 2.01884 1.16471 2.352 0.813845C2.8023 0.379038 3.38048 0.100441 4.00117 0.019411C4.62187 -0.0616194 5.25216 0.0592606 5.799 0.363893C6.28188 0.665947 6.64799 1.12289 6.83745 1.66004C7.02691 2.19718 7.02852 2.78276 6.84199 3.32092C6.63507 3.8512 6.25985 4.2989 5.77391 4.59534C5.28797 4.89178 4.71818 5.02044 4.15199 4.96179Z" fill="#ffffff"/>
</svg>
