<svg width="14" height="23" viewBox="0 0 14 23" fill="none" xmlns="http://www.w3.org/2000/svg">
<path d="M13.7325 8.9541H11.2115C11.2115 8.4901 11.2255 8.04197 11.2115 7.59497C11.1888 6.94365 10.9127 6.32695 10.4419 5.87622C9.97122 5.42549 9.34314 5.17652 8.69145 5.18213V10.208C9.37704 10.221 10.0532 10.3702 10.6806 10.647C11.308 10.9237 11.8741 11.3227 12.3459 11.8203C12.8177 12.3179 13.1857 12.9042 13.4288 13.5454C13.6718 14.1866 13.785 14.8699 13.7615 15.5552C13.6939 16.862 13.1321 18.0941 12.19 19.0022C11.2479 19.9103 9.99582 20.4265 8.68743 20.446V22.946H6.13652V20.4531C5.28952 20.4432 4.4578 20.2256 3.7144 19.8196C2.971 19.4135 2.33857 18.8313 1.87248 18.124C1.11525 16.9227 0.830172 15.4832 1.07244 14.084H3.57842C3.57842 14.526 3.56742 14.9732 3.57842 15.4192C3.59864 16.0732 3.87219 16.6935 4.34123 17.1497C4.81028 17.6058 5.43817 17.862 6.09245 17.864V12.8071C5.32837 12.7955 4.57654 12.6136 3.89153 12.2749C3.20652 11.9362 2.60559 11.4492 2.13249 10.8491C1.34626 9.88354 0.953441 8.65674 1.03252 7.41406C1.1138 6.1151 1.68246 4.89466 2.62493 3.99707C3.56739 3.09948 4.81403 2.59087 6.1154 2.573V0.0791016H8.65141V2.58618C9.43723 2.5943 10.211 2.78091 10.914 3.13208C11.617 3.48325 12.231 3.98964 12.7095 4.61304C13.6054 5.87045 13.9726 7.42899 13.7325 8.9541ZM6.10051 10.2161V5.18604C5.77112 5.18274 5.44426 5.24451 5.13884 5.36792C4.83342 5.49133 4.55537 5.67407 4.32073 5.90527C4.08608 6.13648 3.89944 6.41177 3.77153 6.71533C3.64363 7.0189 3.57705 7.34466 3.57549 7.67407C3.57109 8.00768 3.63322 8.33891 3.75835 8.64819C3.88347 8.95747 4.069 9.23864 4.30413 9.47534C4.53925 9.71205 4.8193 9.89942 5.12773 10.0266C5.43617 10.1538 5.76689 10.2182 6.10051 10.2161ZM8.70049 12.8V17.8672C9.36339 17.8625 9.99801 17.5981 10.4681 17.1306C10.9381 16.6632 11.206 16.03 11.2144 15.3672C11.22 14.6938 10.9586 14.0455 10.4875 13.5645C10.0163 13.0834 9.37382 12.8085 8.70049 12.8Z" fill="#ffffff"/>
</svg>
