<svg width="26" height="32" viewBox="0 0 26 32" fill="none" xmlns="http://www.w3.org/2000/svg">
<g clip-path="url(#clip0_777_5475)">
<path d="M12.5767 0C12.5767 0 13.1424 1.11184 12.4134 1.14631C9.35509 1.2842 1.67148 2.15466 0.808441 7.39031C-0.381375 14.6168 0.129694 25.4889 0.129694 25.4889L0.942636 25.3423L0 27.1178L1.56267 26.7428L1.23578 28.5269L2.77759 27.8287L4.28155 30.4617L6.64448 28.682L13.3225 32L18.5467 28.6863L21.4376 30.2031L22.7949 27.9408L24.0517 28.4492L23.7586 26.4714L25.2961 26.5532L24.4582 24.3986L25.8951 25.3036C25.8951 25.3036 26.3141 13.0224 25.3589 7.15329C24.6048 2.55539 19.5733 1.4178 16.4354 1.15925C16.1421 1.15925 15.6309 0.327599 15.3753 0.318981C15.3753 0.318981 14.9565 1.24968 14.7428 1.09024C14.064 0.642267 13.3371 0.276423 12.5767 0Z" fill="#674322"/>
<g style="mix-blend-mode:multiply" opacity="0.42">
<path d="M2.46692 12.2422C2.46692 12.2422 2.66809 7.71324 6.41769 7.50209C10.5485 7.2737 12.262 9.19125 12.9198 10.372C13.5524 9.13092 15.2407 7.10132 19.4008 7.59256C23.561 8.08381 23.8082 12.462 23.8082 12.462C23.8082 12.462 24.0763 17.5511 21.2945 18.4948L21.2736 21.2311C21.2736 21.2311 20.6033 26.4841 13.4895 26.7943H13.1293H12.7731C5.65098 26.6693 4.81308 21.4552 4.81308 21.4552L4.77953 18.6973C2.1988 17.6847 2.46692 12.2422 2.46692 12.2422Z" fill="#060606"/>
</g>
<path d="M2.83155 11.8459C2.83155 11.8459 3.03272 7.32125 6.78232 7.1058C10.9173 6.8731 12.6267 8.79065 13.2844 9.97567C13.917 8.73463 15.6053 6.70071 19.7655 7.19196C23.9256 7.68321 24.1728 12.0614 24.1728 12.0614C24.1728 12.0614 24.4409 17.1548 21.6591 18.0942L21.6382 20.8305C21.6382 20.8305 20.9679 26.0877 13.8541 26.3979H13.4939H13.1377C6.01561 26.2729 5.17771 21.0589 5.17771 21.0589L5.14416 18.2967C2.57181 17.2927 2.83155 11.8459 2.83155 11.8459Z" fill="#E2AD7E"/>
<path d="M16.2891 15.5821C16.289 15.3572 16.3743 15.1411 16.527 14.9801C16.6796 14.8191 16.8873 14.7258 17.1059 14.7202C17.3245 14.7201 17.5346 14.8079 17.6912 14.9649C17.8477 15.1219 17.9383 15.3357 17.9438 15.5605C17.9438 15.7891 17.8557 16.0083 17.6985 16.1699C17.5414 16.3316 17.3281 16.4223 17.1059 16.4223C16.8909 16.4169 16.6862 16.3266 16.5341 16.1701C16.3821 16.0137 16.2944 15.8032 16.2891 15.5821Z" fill="#674322"/>
<path d="M10.3732 15.4009C10.371 15.2946 10.3893 15.1888 10.4272 15.0899C10.4651 14.9909 10.5218 14.9007 10.594 14.8245C10.6661 14.7483 10.7522 14.6876 10.8474 14.646C10.9426 14.6044 11.0449 14.5827 11.1483 14.5821C11.2516 14.5804 11.3541 14.5998 11.4501 14.6389C11.546 14.6781 11.6334 14.7365 11.7074 14.8105C11.7814 14.8846 11.8404 14.973 11.8811 15.0706C11.9217 15.1682 11.9432 15.2732 11.9443 15.3794C11.946 15.4858 11.9273 15.5914 11.8893 15.6904C11.8512 15.7893 11.7945 15.8796 11.7225 15.956C11.6506 16.0324 11.5646 16.0935 11.4697 16.1358C11.3748 16.1781 11.2726 16.2007 11.1692 16.2024C11.0658 16.2035 10.9632 16.1837 10.8673 16.144C10.7713 16.1043 10.6838 16.0457 10.6099 15.9713C10.536 15.8968 10.477 15.8081 10.4364 15.7102C10.3958 15.6124 10.3743 15.5073 10.3732 15.4009Z" fill="#674322"/>
<path d="M13.2227 18.7407C13.2227 18.7407 13.7464 19.3525 14.0606 18.8139V18.2148H13.1055L13.2227 18.7407Z" fill="#402E20"/>
<path d="M15.5801 18.7149C15.5801 18.7149 15.0648 19.3354 14.7422 18.7968V18.2021H15.6932L15.5801 18.7149Z" fill="#402E20"/>
<path d="M24.7228 5.24859C22.3264 4.61083 5.19976 4.5332 1.89844 5.07615C2.49754 3.96869 4.13556 3.10693 4.13556 3.10693L22.4773 3.6197C22.4773 3.6197 24.3583 4.2704 24.7228 5.24859Z" fill="#464881"/>
<path d="M24.5622 4.977C22.17 4.33924 4.28927 4.36944 2.14844 4.69263C2.86065 3.62396 4.93441 2.73193 4.93441 2.73193L22.4843 2.95602C22.4843 2.95602 24.1977 4.00313 24.5622 4.977Z" fill="#7A65A6"/>
<path d="M14.0215 3.18446L16.531 1.20654L16.4011 5.59329L14.0215 3.18446Z" fill="#464881"/>
<path d="M14.252 3.22761L16.5185 1.35742L16.2084 5.11503L14.252 3.22761Z" fill="#7A65A6"/>
<path d="M13.7791 3.15877L11.6801 1.21533L11.5 5.13238L13.7791 3.15877Z" fill="#464881"/>
<path d="M13.5694 3.17999L11.68 1.29688L11.6758 4.5934L13.5694 3.17999Z" fill="#7A65A6"/>
<path d="M14.8483 3.31399C14.8483 3.54256 14.7599 3.76171 14.6028 3.92333C14.4457 4.08496 14.2326 4.17582 14.0104 4.17582C13.7918 4.1702 13.5839 4.07688 13.4313 3.91586C13.2786 3.75484 13.1933 3.53887 13.1934 3.31399C13.1934 3.08541 13.2817 2.86616 13.4388 2.70453C13.596 2.54291 13.809 2.45215 14.0313 2.45215C14.2498 2.45777 14.4575 2.55098 14.6102 2.712C14.7628 2.87302 14.8484 3.0891 14.8483 3.31399Z" fill="#464881"/>
<path d="M14.672 3.23208C14.6687 3.43705 14.5868 3.63244 14.4439 3.77536C14.301 3.91828 14.1089 3.99712 13.9096 3.99481C13.8111 3.99369 13.7137 3.97266 13.6232 3.93285C13.5326 3.89304 13.4506 3.83527 13.3818 3.76284C13.3129 3.69041 13.2585 3.60479 13.2218 3.51077C13.1851 3.41675 13.1669 3.31623 13.168 3.21493C13.1713 3.00996 13.2534 2.81468 13.3963 2.67176C13.5392 2.52884 13.7313 2.44989 13.9306 2.4522C14.0291 2.45332 14.1263 2.47436 14.2168 2.51416C14.3074 2.55397 14.3896 2.61175 14.4584 2.68417C14.5273 2.7566 14.5815 2.84222 14.6182 2.93624C14.6548 3.03026 14.6731 3.13078 14.672 3.23208Z" fill="#7A65A6"/>
<path d="M16.2881 23.3471C16.9822 23.3471 17.5449 22.9709 17.5449 22.5068C17.5449 22.0427 16.9822 21.6665 16.2881 21.6665C15.594 21.6665 15.0312 22.0427 15.0312 22.5068C15.0312 22.9709 15.594 23.3471 16.2881 23.3471Z" fill="#402E20"/>
<path d="M24.5304 25.0365C24.0339 25.1822 23.5146 25.2276 23.0013 25.1701L14.9993 22.6319C14.9336 22.6101 14.8788 22.5627 14.8467 22.4999C14.8146 22.4371 14.8077 22.3639 14.8275 22.2959L15.0161 21.6753C15.0257 21.6417 15.0416 21.6104 15.0631 21.5833C15.0846 21.5561 15.1112 21.5336 15.1413 21.5172C15.1713 21.5007 15.2041 21.4906 15.238 21.4874C15.2719 21.4842 15.3062 21.4881 15.3387 21.4987L23.3407 24.041C23.6465 24.1358 24.5723 24.8943 24.5304 25.0365Z" fill="url(#paint0_linear_777_5475)"/>
<path d="M24.198 24.6313C24.1511 24.6992 24.1131 24.7731 24.0849 24.8511C24.0629 24.9489 24.0489 25.0483 24.043 25.1484C24.043 25.1484 24.4828 25.101 24.5331 25.0321C24.5834 24.9631 24.198 24.6313 24.198 24.6313Z" fill="#D8D8D8"/>
<path d="M15.1074 14.4874C15.6326 14.712 16.1937 14.8348 16.7624 14.8494C17.4343 14.782 18.0926 14.6105 18.7147 14.3408" fill="#E2AD7E"/>
<path d="M15.207 16.2973C15.7399 16.0756 16.3081 15.9573 16.8828 15.9482C17.6013 16.0474 18.2975 16.2749 18.9399 16.6205" fill="#E2AD7E"/>
</g>
<defs>
<linearGradient id="paint0_linear_777_5475" x1="14.8149" y1="23.343" x2="24.5304" y2="23.343" gradientUnits="userSpaceOnUse">
<stop stop-color="#37579E"/>
<stop offset="1" stop-color="#4B7DB6"/>
</linearGradient>
<clipPath id="clip0_777_5475">
<rect width="26" height="32" fill="white"/>
</clipPath>
</defs>
</svg>
