<svg xmlns="http://www.w3.org/2000/svg" xmlns:xlink="http://www.w3.org/1999/xlink" width="59" height="56" viewBox="0 0 59 56">
  <defs>
    <clipPath id="clip-path">
      <rect id="Rectángulo_6000" data-name="Rectángulo 6000" width="44.92" height="44.926" fill="#fddb00"/>
    </clipPath>
    <clipPath id="clip-check">
      <rect width="59" height="56"/>
    </clipPath>
  </defs>
  <g id="check" clip-path="url(#clip-check)">
    <g id="Check-2" data-name="Check" transform="translate(7 6)">
      <g id="Check-3" data-name="Check" clip-path="url(#clip-path)">
        <path id="Trazado_19124" data-name="Trazado 19124" d="M20.97,0h2.983c.532.067,1.066.125,1.6.2A22.541,22.541,0,0,1,44.66,19.068c.1.631.174,1.266.261,1.9V23.95c-.065.519-.121,1.039-.2,1.556a22.089,22.089,0,0,1-8.287,14.5A21.722,21.722,0,0,1,19.408,44.7,21.7,21.7,0,0,1,4.877,36.394a21.854,21.854,0,0,1-4.664-17A21.582,21.582,0,0,1,5.549,7.7,22.113,22.113,0,0,1,19.07.261C19.7.161,20.336.086,20.97,0M4.105,22.457A18.356,18.356,0,1,0,22.474,4.1,18.378,18.378,0,0,0,4.105,22.457" transform="translate(0)" fill="#fddb00"/>
        <path id="Trazado_19125" data-name="Trazado 19125" d="M70.642,93.854c1.389-1.392,2.741-2.748,4.094-4.1q3.641-3.643,7.282-7.288a2.163,2.163,0,0,1,1.748-.743,1.946,1.946,0,0,1,1.7,1.135,1.921,1.921,0,0,1-.143,2.034,3.49,3.49,0,0,1-.46.527Q78.583,91.7,72.3,97.974a2.092,2.092,0,0,1-3.322.007q-3.21-3.207-6.415-6.419a2.024,2.024,0,0,1,.094-3.173,1.991,1.991,0,0,1,2.439-.028,6.724,6.724,0,0,1,.676.623c1.612,1.61,3.222,3.224,4.866,4.87" transform="translate(-51.305 -67.786)" fill="#fddb00"/>
      </g>
    </g>
  </g>
</svg>