<svg width="16" height="25" viewBox="0 0 16 25" fill="none" xmlns="http://www.w3.org/2000/svg">
<path d="M4.49357 12.4274C6.33348 13.9184 8.15656 15.3597 9.93438 16.8439C11.6853 18.3068 13.4014 19.8045 15.1087 21.3071C15.3965 21.5593 15.654 21.893 15.7698 22.2292C15.9848 22.8598 15.6354 23.5063 15.0182 23.8379C14.3764 24.184 13.5999 24.1226 13.0057 23.6746C12.8981 23.5939 12.7991 23.5052 12.6984 23.4181C8.91971 20.1605 5.13932 16.9046 1.36245 13.647C0.304928 12.7348 0.297804 11.9495 1.32517 10.9983C4.9471 7.64779 8.569 4.29571 12.1909 0.945202C12.3494 0.799103 12.5078 0.649887 12.6843 0.520624C13.3693 0.0210644 14.2654 0.0368266 14.9032 0.551045C15.5213 1.05002 15.6356 1.88804 15.1581 2.50403C15.0301 2.66986 14.8663 2.81605 14.7078 2.96371C11.5126 5.9204 8.31546 8.87557 5.12014 11.8307C4.9756 11.9641 4.83469 12.1021 4.49357 12.4274Z" fill="#FDDB00"/>
</svg>
