<svg width="16" height="25" viewBox="0 0 16 25" fill="none" xmlns="http://www.w3.org/2000/svg">
<path d="M11.6307 12.791C9.81809 11.2687 8.02136 9.79624 6.27066 8.2817C4.54651 6.78897 2.85776 5.26197 1.17786 3.73029C0.894634 3.47319 0.643269 3.13507 0.533518 2.79695C0.329948 2.16277 0.691064 1.52237 1.31417 1.20138C1.96205 0.866379 2.73739 0.941171 3.32332 1.39927C3.42953 1.48185 3.52689 1.57223 3.62602 1.66104C7.34515 4.98306 11.0661 8.30351 14.7834 11.6255C15.8243 12.5558 15.8172 13.3411 14.7728 14.2744C11.0908 17.5621 7.40888 20.8514 3.72692 24.1392C3.56583 24.2825 3.40474 24.429 3.22596 24.5552C2.53205 25.0429 1.63634 25.0117 1.00793 24.4866C0.398985 23.9771 0.299855 23.1373 0.788424 22.5296C0.919417 22.366 1.08581 22.2226 1.2469 22.0777C4.49517 19.1764 7.74521 16.2767 10.9935 13.3769C11.1404 13.246 11.2838 13.1105 11.6307 12.791Z" fill="#FDDB00"/>
</svg>
