<svg id="Icono_más_" data-name="Icono más +" xmlns="http://www.w3.org/2000/svg" width="14.444" height="14.444" viewBox="0 0 14.444 14.444">
  <g id="Grupo_6247" data-name="Grupo 6247">
    <path id="Trazado_4529" data-name="Trazado 4529" d="M11.937,7.875a.451.451,0,0,1,.451.451v3.611a.451.451,0,0,1-.451.451H8.326a.451.451,0,0,1,0-.9h3.16V8.326A.451.451,0,0,1,11.937,7.875Z" transform="translate(-4.715 -4.715)" fill="#fddb00" fill-rule="evenodd"/>
    <path id="Trazado_4530" data-name="Trazado 4530" d="M16.875,17.326a.451.451,0,0,1,.451-.451h3.611a.451.451,0,1,1,0,.9h-3.16v3.16a.451.451,0,0,1-.9,0Z" transform="translate(-10.104 -10.104)" fill="#fddb00" fill-rule="evenodd"/>
  </g>
  <path id="Trazado_4531" data-name="Trazado 4531" d="M7.222,13.541A6.319,6.319,0,1,0,.9,7.222,6.319,6.319,0,0,0,7.222,13.541Zm0,.9A7.222,7.222,0,1,0,0,7.222,7.222,7.222,0,0,0,7.222,14.444Z" fill="#fddb00" fill-rule="evenodd"/>
</svg>
