<svg xmlns="http://www.w3.org/2000/svg" width="42" height="42" viewBox="0 0 42 42">
  <g id="Grupo_10747" data-name="Grupo 10747" transform="translate(-62 -624)">
    <circle id="Elipse_179" data-name="Elipse 179" cx="21" cy="21" r="21" transform="translate(62 624)" fill="#fddb00"/>
    <g id="Flechas" transform="translate(75 638)">
      <path id="angle-left" d="M.366,6.877A.423.423,0,0,0,.5,7.185l5.262,5.262L.5,17.71a.421.421,0,0,0,0,.616l.669.669a.422.422,0,0,0,.616,0l6.24-6.24a.422.422,0,0,0,0-.616L1.785,5.9a.422.422,0,0,0-.616,0L.5,6.569a.423.423,0,0,0-.134.308Z" transform="translate(-0.366 -5.413)" fill="#36a9e1"/>
      <path id="angle-left-2" data-name="angle-left" d="M.366,6.877A.423.423,0,0,0,.5,7.185l5.262,5.262L.5,17.71a.421.421,0,0,0,0,.616l.669.669a.422.422,0,0,0,.616,0l6.24-6.24a.422.422,0,0,0,0-.616L1.785,5.9a.422.422,0,0,0-.616,0L.5,6.569a.423.423,0,0,0-.134.308Z" transform="translate(7.427 -5.766)" fill="#36a9e1"/>
    </g>
  </g>
</svg>
