<svg width="21" height="21" viewBox="0 0 21 21" fill="none" xmlns="http://www.w3.org/2000/svg">
<path d="M18.047 2.68627e-05H18.5393C19.0522 0.101434 19.4696 0.364172 19.8125 0.753669C19.9111 0.866024 20.0188 0.971465 20.1301 1.07172C20.5526 1.452 20.8978 1.87952 20.9999 2.45974V2.95179C20.8961 3.52567 20.5393 3.93418 20.1393 4.33117C18.1323 6.32359 16.1357 8.32697 14.1357 10.3263C14.0838 10.3782 14.0342 10.4329 13.9386 10.5343C14.0146 10.5862 14.0919 10.623 14.1484 10.6795C16.145 12.6725 18.1364 14.6713 20.1387 16.6585C20.5382 17.0555 20.8955 17.4634 20.9993 18.0379V18.5299C20.8852 18.8042 20.8269 19.1257 20.6442 19.3429C20.2592 19.8004 19.8425 20.2447 19.3779 20.6197C18.6396 21.2155 17.6413 21.0945 16.9306 20.3852C14.8469 18.3041 12.7656 16.2218 10.6831 14.14C10.6267 14.0836 10.5673 14.0294 10.5022 13.9666C10.4382 14.0277 10.3834 14.0778 10.3316 14.1302C8.23927 16.2218 6.14815 18.3145 4.05415 20.4037C3.26623 21.1896 2.15726 21.189 1.36819 20.4094C1.09614 20.1404 0.811982 19.8817 0.561831 19.5936C0.390645 19.3959 0.222917 19.1724 0.133001 18.931C-0.151733 18.1693 0.0355918 17.4974 0.605636 16.927C2.69273 14.8401 4.78039 12.7538 6.86748 10.6668C6.92281 10.6115 6.97584 10.5533 7.04846 10.4773C6.96662 10.407 6.90033 10.3574 6.84269 10.2998C4.75964 8.21749 2.67601 6.13691 0.595261 4.05287C-0.199573 3.25659 -0.196691 2.1509 0.593532 1.3529C0.761837 1.18292 0.939363 1.02159 1.0996 0.844129C1.47425 0.431009 1.89674 0.100282 2.4639 2.68627e-05H2.95613C3.52964 0.104315 3.93887 0.459818 4.33542 0.859686C6.32856 2.86652 8.33265 4.86298 10.3333 6.86232C10.3852 6.91418 10.4399 6.96373 10.5425 7.0611C10.5938 6.98505 10.6301 6.90726 10.6866 6.85022C12.6809 4.85376 14.6804 2.86306 16.6689 0.860838C17.0655 0.461546 17.4735 0.105468 18.0465 -0.000549316L18.047 2.68627e-05Z" fill="#F10101"/>
</svg>
