<svg id="Icono_dinero" data-name="Icono dinero" xmlns="http://www.w3.org/2000/svg" xmlns:xlink="http://www.w3.org/1999/xlink" width="22.399" height="23.546" viewBox="0 0 22.399 23.546">
  <defs>
    <clipPath id="clip-path">
      <rect id="Rectángulo_5997" data-name="Rectángulo 5997" width="22.399" height="23.546" fill="#fff"/>
    </clipPath>
  </defs>
  <g id="Grupo_6165" data-name="Grupo 6165" clip-path="url(#clip-path)">
    <path id="Trazado_19107" data-name="Trazado 19107" d="M22.4,161.576a10.487,10.487,0,0,1-1.466,2.011c-.852,1.1-1.735,2.167-2.592,3.26a3.743,3.743,0,0,1-3.058,1.507c-1.89.013-3.78.02-5.67-.006a1.882,1.882,0,0,0-1.448.811.232.232,0,0,0-.019.167,1.473,1.473,0,0,1-.414,1.377c-.664.678-1.32,1.364-1.982,2.044a3.132,3.132,0,0,1-.253.213H5.234c-.131-.12-.269-.232-.391-.361Q2.536,170.166.232,167.73c-.307-.324-.308-.54-.006-.857.638-.672,1.28-1.341,1.915-2.017a1.384,1.384,0,0,1,1.115-.483.261.261,0,0,0,.2-.112,5.559,5.559,0,0,1,6.918-2.411.992.992,0,0,0,.361.064c1.5,0,2.992.01,4.488,0a1.9,1.9,0,0,1,1.616.756.843.843,0,0,1,.1-.227c.811-.881,1.627-1.756,2.439-2.635a1.716,1.716,0,0,1,2.982.613.278.278,0,0,0,.037.054ZM7.581,168.454c.066-.064.128-.116.181-.176a2.443,2.443,0,0,1,2-.846c1.816.026,3.633.011,5.45.007a2.951,2.951,0,0,0,2.483-1.211c.381-.5.784-.987,1.177-1.48q1.243-1.557,2.484-3.115a.95.95,0,0,0-.062-1.3.843.843,0,0,0-1.223.051q-1.408,1.509-2.806,3.028a.329.329,0,0,0-.085.194,1.812,1.812,0,0,1-1.941,1.992h-3.2a1.489,1.489,0,0,1-.261-.015.455.455,0,0,1,.032-.9,2.11,2.11,0,0,1,.24-.008h3.217a1.957,1.957,0,0,0,.283-.016.9.9,0,0,0,.749-.858.914.914,0,0,0-.623-.92,1.589,1.589,0,0,0-.433-.045c-1.547,0-3.093,0-4.64-.005a1.108,1.108,0,0,1-.426-.074,4.8,4.8,0,0,0-2.985-.256,4.339,4.339,0,0,0-2.95,2.175.225.225,0,0,0,.043.328c.307.3.6.624.9.938l2.392,2.511m-2.114,3.4c.557-.609,1.145-1.246,1.724-1.892a.477.477,0,0,0-.07-.691q-1.8-1.892-3.607-3.78a.437.437,0,0,0-.736,0c-.388.4-.771.814-1.16,1.218-.185.191-.378.374-.59.583l4.44,4.558" transform="translate(-0.001 -149.413)" fill="#fff"/>
    <path id="Trazado_19108" data-name="Trazado 19108" d="M145.856,10.109a4.938,4.938,0,0,1-4.81-5.075,4.826,4.826,0,1,1,9.642.045,4.935,4.935,0,0,1-4.832,5.03m.01-.919a4.038,4.038,0,0,0,3.945-4.122,3.949,3.949,0,1,0-7.889-.023,4.039,4.039,0,0,0,3.944,4.146" transform="translate(-132.795 0)" fill="#fff"/>
    <path id="Trazado_19109" data-name="Trazado 19109" d="M164.553,248.185a.447.447,0,0,1-.43.452.461.461,0,0,1-.442-.468.449.449,0,0,1,.458-.446.439.439,0,0,1,.415.463" transform="translate(-154.106 -232.532)" fill="#fff"/>
    <path id="Trazado_19110" data-name="Trazado 19110" d="M199.872,30.974c0-.161,0-.329,0-.5A.456.456,0,0,1,200.3,30a.429.429,0,0,1,.436.467c-.029.354.032.613.389.736a.757.757,0,0,1,.255.211.46.46,0,0,1,.028.639.421.421,0,0,1-.593.054,3,3,0,0,0-.267-.2.414.414,0,0,0-.528.048.433.433,0,0,0-.131.476.442.442,0,0,0,.43.325,1.333,1.333,0,0,1,1.274,1.113,1.408,1.408,0,0,1-.733,1.52.28.28,0,0,0-.112.184c-.018.135,0,.275-.008.412a.435.435,0,0,1-.439.443.41.41,0,0,1-.426-.448.653.653,0,0,0-.416-.771,1.222,1.222,0,0,1-.4-.384.451.451,0,0,1,.046-.619.414.414,0,0,1,.595.009,3.155,3.155,0,0,0,.294.272.443.443,0,0,0,.57.011.432.432,0,0,0,.156-.488.464.464,0,0,0-.468-.34,1.376,1.376,0,0,1-1.126-1.99,1.523,1.523,0,0,1,.739-.7" transform="translate(-187.325 -28.156)" fill="#fff"/>
  </g>
</svg>
