<svg width="16" height="15" viewBox="0 0 16 15" fill="none" xmlns="http://www.w3.org/2000/svg">
<path d="M13.4104 2.6049C13.36 2.68425 13.3039 2.75976 13.2423 2.8308C9.29674 6.77873 5.35062 10.7264 1.40396 14.6739C1.21809 14.8601 1.02015 15.009 0.747875 14.9996C0.604252 15.0017 0.463298 14.9607 0.343186 14.8819C0.223074 14.8031 0.12931 14.6902 0.073984 14.5576C0.0109459 14.429 -0.012579 14.2846 0.0063777 14.1426C0.0253344 14.0006 0.0859233 13.8674 0.180499 13.7598C0.23738 13.6942 0.297819 13.6317 0.361544 13.5726C4.29761 9.63657 8.23367 5.70108 12.1697 1.76616C12.2399 1.70246 12.3134 1.64256 12.3899 1.58672C12.3804 1.56349 12.3714 1.54065 12.3623 1.51752H12.1209C9.84715 1.51752 7.57336 1.51695 5.29956 1.51581C5.17383 1.52031 5.04809 1.50697 4.9261 1.47618C4.75763 1.42666 4.61202 1.31928 4.51493 1.17295C4.41784 1.02663 4.37549 0.850743 4.39534 0.676263C4.41593 0.498095 4.49864 0.332879 4.62894 0.209638C4.75925 0.0863959 4.92881 0.0130104 5.10785 0.00237173C5.17071 -0.00165151 5.23418 0.000661853 5.29745 0.000661853C7.72889 0.000661853 10.1605 0.000661853 12.5924 0.000661853C14.0346 0.00136592 15.0016 0.963924 15.0023 2.40183C15.0036 4.86485 15.0036 7.32807 15.0023 9.7915C15.0023 10.1948 14.8016 10.4754 14.4504 10.5796C14.2986 10.6286 14.1347 10.6249 13.9853 10.5692C13.8358 10.5135 13.7096 10.4089 13.6269 10.2725C13.5391 10.1072 13.493 9.92288 13.4929 9.73568C13.4841 7.46154 13.4871 5.18781 13.4871 2.91398V2.6566L13.4104 2.6049Z" fill="#36A9E1"/>
</svg>
