<svg id="Icono_carrito" data-name="Icono carrito" xmlns="http://www.w3.org/2000/svg" width="24.315" height="22.694" viewBox="0 0 24.315 22.694">
  <path id="Trazado_4518" data-name="Trazado 4518" d="M0,5.311A.811.811,0,0,1,.811,4.5H3.242a.811.811,0,0,1,.786.615l.657,2.628h18.82a.811.811,0,0,1,.786,1.006l-2.432,9.726a.811.811,0,0,1-.786.615H6.484a.811.811,0,0,1-.786-.615L2.61,6.121H.811A.811.811,0,0,1,0,5.311ZM5.09,9.363l2.027,8.105H20.442l2.027-8.105ZM8.105,22.331a1.621,1.621,0,1,0,1.621,1.621A1.621,1.621,0,0,0,8.105,22.331ZM4.863,23.952a3.242,3.242,0,1,1,3.242,3.242A3.242,3.242,0,0,1,4.863,23.952Zm14.589-1.621a1.621,1.621,0,1,0,1.621,1.621A1.621,1.621,0,0,0,19.452,22.331ZM16.21,23.952a3.242,3.242,0,1,1,3.242,3.242A3.242,3.242,0,0,1,16.21,23.952Z" transform="translate(0 -4.5)" fill="#36a9e1" fill-rule="evenodd"/>
</svg>
