<svg width="60" height="60" viewBox="0 0 60 60" fill="none" xmlns="http://www.w3.org/2000/svg">
<mask id="mask0_777_5587" style="mask-type:alpha" maskUnits="userSpaceOnUse" x="0" y="0" width="60" height="60">
<circle cx="30" cy="30" r="30" fill="#36A9E1"/>
</mask>
<g mask="url(#mask0_777_5587)">
<path d="M31.759 44.2533C33.018 44.2291 34.1671 43.0534 34.3226 41.6262L35.6608 29.7359C35.8315 28.3087 34.9292 27.1724 33.6672 27.1996L25.7297 27.3663C24.4738 27.3966 23.3124 28.5723 23.1509 29.9965L21.8066 41.8929C21.6511 43.3201 22.5473 44.4533 23.8032 44.42L31.756 44.2533H31.759Z" fill="#E0AC83"/>
<path d="M36.3124 16.2365C36.4312 14.4366 35.2455 12.8549 33.7031 12.7155C32.1424 12.567 30.7981 13.9033 30.7006 15.7153L27.6249 25.2543C27.5274 27.0481 31.234 28.3541 32.7917 28.4996C34.3432 28.642 35.6875 27.2966 35.7881 25.4967L36.3124 16.2396V16.2365Z" fill="#E0AC83"/>
<path d="M41.8484 32.057C43.3756 32.2752 44.9454 31.2934 45.3447 29.8692C45.7471 28.4511 44.8265 27.1209 43.2994 26.9057L35.4502 25.8027C33.923 25.5876 32.3532 26.5603 31.9478 27.9905C31.5454 29.4086 32.469 30.7419 33.9962 30.9601L41.8454 32.057H41.8484Z" fill="#E0AC83"/>
<path d="M39.584 44.3867C40.971 44.6079 42.4219 43.7352 42.8121 42.4444C43.2023 41.1535 42.3823 39.9233 40.9893 39.7021L33.8351 38.5749C32.436 38.3476 30.9941 39.2142 30.5979 40.5172C30.2108 41.8081 31.0307 43.0383 32.4207 43.2625L39.581 44.3867H39.584Z" fill="#E0AC83"/>
<path d="M42.0356 36.0144C43.6694 36.078 45.1874 35.0144 45.4191 33.6478C45.6569 32.2842 44.5168 31.1207 42.883 31.0601L34.5126 30.7479C32.8787 30.6813 31.3637 31.7509 31.129 33.1115C30.9004 34.4902 32.0283 35.6417 33.6652 35.7083L42.0356 36.0144Z" fill="#E0AC83"/>
<path d="M40.4689 40.5505C41.9869 40.7596 43.5507 39.7869 43.9409 38.3839C44.3371 36.9749 43.4166 35.675 41.8894 35.4598L34.0646 34.4144C32.5405 34.2114 30.992 35.1811 30.5988 36.584C30.2056 37.99 31.1231 39.296 32.6563 39.5021L40.472 40.5505H40.4689Z" fill="#E0AC83"/>
<g style="mix-blend-mode:multiply" opacity="0.6">
<path d="M29.2573 23.9786L32.7902 23.9968L29.0134 28.7662L32.3634 31.5479L27.846 33.4084L30.9704 37.6234L26.8431 38.4991L29.87 42.7807L23.9138 42.4928L21.7617 41.8747L22.7097 36.8689L26.5779 28.9692L29.2573 23.9786Z" fill="#1B1A19"/>
</g>
<path d="M28.5616 46.4532L21.6696 43.5352C21.6696 43.5352 -23.4807 47.6623 -28.8882 41.805C-34.7347 35.4659 -34.7652 -16.2073 -34.7652 -16.2073C-35.954 -27.5401 -31.2841 -30.446 -25.2944 -31.8762C-17.18 -33.8004 -10.2179 -18.289 -11.2847 -4.35032C-11.2847 -4.35032 -13.6471 23.5301 -11.614 25.2331C-8.94371 27.4572 26.4401 25.0937 26.4401 25.0937L33.8838 21.2727L28.3635 28.2238L32.6188 30.3965L26.9217 32.6479L31.5093 36.3901L25.9584 37.7658L30.9972 41.9595L24.285 41.6717L28.5586 46.4563L28.5616 46.4532Z" fill="#694121"/>
</g>
</svg>
