<svg xmlns="http://www.w3.org/2000/svg" width="190.94" height="34.31" viewBox="0 0 190.94 34.31">
  <g id="Logotipo" transform="translate(-60.411 -100.716)">
    <g id="Componente_7_2" data-name="Componente 7 – 2" transform="translate(60.411 100.716)">
      <g id="Capa_1" data-name="Capa 1">
        <path id="Trazado_902" data-name="Trazado 902" d="M183.68,40l.6.338.67.38.863.477c.326.157.664.35,1.032.531s.754.362,1.153.543.833.344,1.255.525.869.308,1.309.459a8.269,8.269,0,0,0,1.327.344,13.281,13.281,0,0,0,1.315.217,9.934,9.934,0,0,0,1.243.085,9.654,9.654,0,0,0,1.122-.03c.35-.042.676-.072.971-.1l.736-.157.67-.127s-.2.139-.6.362c-.187.109-.416.253-.694.392a6.642,6.642,0,0,1-.971.35,5.764,5.764,0,0,1-1.207.266,6.392,6.392,0,0,1-1.376.084,8.212,8.212,0,0,1-1.472-.121c-.495-.072-.984-.229-1.478-.338a7.265,7.265,0,0,1-1.412-.543,12.948,12.948,0,0,1-1.291-.664,10.714,10.714,0,0,1-1.128-.736,10.914,10.914,0,0,1-.935-.73,10.223,10.223,0,0,1-1.7-1.81" transform="translate(-72.844 -15.863)" fill="#fff"/>
        <path id="Trazado_903" data-name="Trazado 903" d="M162.7,40a10.31,10.31,0,0,1-1.7,1.81c-.3.235-.6.507-.953.742a10.816,10.816,0,0,1-1.135.736,12.935,12.935,0,0,1-1.291.664c-.452.205-.935.362-1.406.543a6.884,6.884,0,0,1-1.484.338,8.121,8.121,0,0,1-1.472.121,6.413,6.413,0,0,1-1.376-.084,5.844,5.844,0,0,1-1.207-.266c-.362-.115-.688-.241-.972-.35a4.351,4.351,0,0,1-.688-.392c-.374-.223-.573-.362-.573-.362l.67.127.736.157a8.844,8.844,0,0,1,.965.1,9.718,9.718,0,0,0,1.128.03,9.938,9.938,0,0,0,1.243-.084,13.146,13.146,0,0,0,1.309-.217c.446-.072.887-.235,1.334-.344a8.421,8.421,0,0,0,1.309-.459c.422-.181.857-.326,1.249-.525s.791-.362,1.159-.543.706-.374,1.026-.531l.869-.477.664-.38.6-.338" transform="translate(-58.872 -15.863)" fill="#fff"/>
        <path id="Trazado_904" data-name="Trazado 904" d="M151,26.3a4.882,4.882,0,1,1,4.882,4.882A4.882,4.882,0,0,1,151,26.3" transform="translate(-59.884 -8.495)" fill="#fff"/>
        <path id="Trazado_905" data-name="Trazado 905" d="M188.82,26.436a4.677,4.677,0,1,1,4.677,4.676,4.677,4.677,0,0,1-4.677-4.676" transform="translate(-74.882 -8.63)" fill="#fff"/>
        <path id="Trazado_906" data-name="Trazado 906" d="M2.576,14.3a10.861,10.861,0,0,0,.881,4.333,11.326,11.326,0,0,0,5.986,5.992,10.7,10.7,0,0,0,4.32.881,10.608,10.608,0,0,0,4.339-.881A11.35,11.35,0,0,0,22.851,20.8H25.9a13.408,13.408,0,0,1-2.414,3.234A14.047,14.047,0,0,1,19.11,27,13.589,13.589,0,0,1,8.436,27a13.945,13.945,0,0,1-7.35-7.344A13.239,13.239,0,0,1,0,14.32,13.275,13.275,0,0,1,1.086,8.98,13.945,13.945,0,0,1,8.448,1.636,13.239,13.239,0,0,1,13.764.55,13.275,13.275,0,0,1,19.1,1.636,14.15,14.15,0,0,1,23.485,4.6,13.559,13.559,0,0,1,25.9,7.839H22.785a9.051,9.051,0,0,0-1.177-1.37A11.061,11.061,0,0,0,18.1,4.019a10.9,10.9,0,0,0-8.629,0A11.374,11.374,0,0,0,3.488,9.993a10.735,10.735,0,0,0-.881,4.314" transform="translate(0 -0.218)" fill="#fff"/>
        <path id="Trazado_907" data-name="Trazado 907" d="M47.27,2h2.655v8.991a5.631,5.631,0,0,1,1.044-1.068,6.777,6.777,0,0,1,1.364-.809A8.774,8.774,0,0,1,53.9,8.6a7.09,7.09,0,0,1,1.623-.187,7.917,7.917,0,0,1,3.2.664,8.562,8.562,0,0,1,2.631,1.81,8.448,8.448,0,0,1,1.81,2.631,7.845,7.845,0,0,1,.664,3.2v.036L63.864,27.8H61.185L61.149,16.76v-.036A5.557,5.557,0,0,0,59.5,12.729a5.92,5.92,0,0,0-1.81-1.207,5.431,5.431,0,0,0-2.172-.44,4.894,4.894,0,0,0-2.118.477,5.919,5.919,0,0,0-1.768,1.267,6.582,6.582,0,0,0-1.207,1.81,5.05,5.05,0,0,0-.459,2.118V27.8H47.27Z" transform="translate(-18.746 -0.793)" fill="#fff"/>
        <path id="Trazado_908" data-name="Trazado 908" d="M78.75,3.565A1.545,1.545,0,1,1,80.295,5.11,1.545,1.545,0,0,1,78.75,3.565m.223,5.817H81.55v18.4H78.973Z" transform="translate(-31.231 -0.801)" fill="#fff"/>
        <path id="Trazado_909" data-name="Trazado 909" d="M87.78,13.6h2.649v1.678a6.342,6.342,0,0,1,2.414-1.895,7.645,7.645,0,0,1,7.1.332,9.051,9.051,0,0,1,2.89,2.77,8.176,8.176,0,0,1,3.017-2.782,8.321,8.321,0,0,1,4.1-1.05,7.917,7.917,0,0,1,3.2.664,8.562,8.562,0,0,1,2.631,1.81,8.357,8.357,0,0,1,1.768,2.649A8.231,8.231,0,0,1,118.2,21l.036,11.043h-2.649L115.549,21a5.533,5.533,0,0,0-.44-2.209,5.884,5.884,0,0,0-1.207-1.81,5.533,5.533,0,0,0-1.768-1.207,5.649,5.649,0,0,0-7.4,3.017A5.533,5.533,0,0,0,104.3,21l.036,11.043h-2.649L101.641,21a6.541,6.541,0,0,0-.531-2.263,5.853,5.853,0,0,0-1.207-1.81,5.485,5.485,0,0,0-1.75-1.177,5.376,5.376,0,0,0-2.136-.422,4.972,4.972,0,0,0-2.154.477,6.24,6.24,0,0,0-1.81,1.267,6.084,6.084,0,0,0-1.207,1.81A5.227,5.227,0,0,0,90.4,21l.036,11.043H87.816Z" transform="translate(-34.812 -5.017)" fill="#fff"/>
        <path id="Trazado_910" data-name="Trazado 910" d="M142.366,22.816a9.925,9.925,0,0,1,.79-3.94,10.391,10.391,0,0,1,2.172-3.222,10.258,10.258,0,0,1,3.222-2.172A10.12,10.12,0,0,1,156.4,32.138a9.775,9.775,0,0,1-3.934.8,9.486,9.486,0,0,1-4.284-1.122,7.887,7.887,0,0,1-3.24-2.776V39.343H142.36Zm2.577,0a7.4,7.4,0,0,0,.6,2.927,7.54,7.54,0,0,0,13.9,0,7.551,7.551,0,1,0-13.921-5.853,7.4,7.4,0,0,0-.6,2.927" transform="translate(-56.457 -5.033)" fill="#fff"/>
        <path id="Trazado_911" data-name="Trazado 911" d="M179.744,22.755a9.808,9.808,0,0,1,.8-3.94,10.129,10.129,0,0,1,18.658,0,9.8,9.8,0,0,1,.791,3.94v9.238h-2.6V29.526c-.121.127-.254.259-.4.4a10.024,10.024,0,0,1-3.2,2.154A10.127,10.127,0,0,1,180.517,26.7a9.85,9.85,0,0,1-.8-3.94m2.577,0a7.4,7.4,0,0,0,.6,2.927,7.548,7.548,0,0,0,9.884,4.031,7.651,7.651,0,0,0,4.031-4.013,7.91,7.91,0,0,0,.573-2.589v-.332a7.369,7.369,0,0,0-.6-2.927,7.558,7.558,0,0,0-12.3-2.414,7.638,7.638,0,0,0-1.617,2.414,7.372,7.372,0,0,0-.6,2.927" transform="translate(-71.273 -5.009)" fill="#fff"/>
        <path id="Trazado_912" data-name="Trazado 912" d="M231.595,20.939a5.536,5.536,0,0,0-.44-2.208,5.655,5.655,0,0,0-3.017-3.017,5.431,5.431,0,0,0-2.172-.44,5.087,5.087,0,0,0-2.172.477,6.162,6.162,0,0,0-1.81,1.267,6.3,6.3,0,0,0-1.207,1.81,5.1,5.1,0,0,0-.465,2.1l.042,11.043H217.74V13.578h2.571v1.677a4.293,4.293,0,0,1,1-1.086,6.962,6.962,0,0,1,1.382-.851,8.061,8.061,0,0,1,3.295-.718,7.917,7.917,0,0,1,3.2.664,8.412,8.412,0,0,1,4.4,4.453,8.038,8.038,0,0,1,.658,3.222l.042,11.043h-2.655Z" transform="translate(-86.352 -4.997)" fill="#fff"/>
        <path id="Trazado_913" data-name="Trazado 913" d="M251.465,22.755a7.393,7.393,0,0,0,.6,2.928,7.548,7.548,0,0,0,12.3,2.406,7.173,7.173,0,0,0,1.249-1.69h2.836l-.115.3a9.926,9.926,0,0,1-2.148,3.216,10.125,10.125,0,1,1-14.319-14.319,10.114,10.114,0,0,1,14.319,0,10.013,10.013,0,0,1,2.148,3.222l.115.259h-2.872a6.817,6.817,0,0,0-1.207-1.659,7.552,7.552,0,0,0-12.3,2.414,7.368,7.368,0,0,0-.6,2.927" transform="translate(-98.709 -5.009)" fill="#fff"/>
        <path id="Trazado_914" data-name="Trazado 914" d="M161.674,10.375s-.362-.175-1-.459-1.557-.664-2.661-1.068a28.657,28.657,0,0,0-3.832-1.128,17.166,17.166,0,0,0-2.184-.344,12.739,12.739,0,0,0-2.251-.042,9.413,9.413,0,0,0-2.178.38c-.35.084-.682.235-1.014.35a8.175,8.175,0,0,0-.953.465,11.088,11.088,0,0,0-1.635,1.177c-.229.229-.471.441-.682.664l-.6.67c-.181.229-.338.459-.5.67a4.877,4.877,0,0,0-.441.6c-.247.41-.507.748-.658,1.062-.338.6-.549.953-.549.953s.1-.386.29-1.068a11.045,11.045,0,0,1,.441-1.207,11.6,11.6,0,0,1,.76-1.478l.537-.809c.187-.278.434-.525.664-.809a10.725,10.725,0,0,1,.79-.778,10.289,10.289,0,0,1,.935-.712A9.2,9.2,0,0,1,147.168,6.4a10.783,10.783,0,0,1,2.486-.477,14.313,14.313,0,0,1,2.5.091,15.086,15.086,0,0,1,2.335.495,17.16,17.16,0,0,1,2.082.742,19.556,19.556,0,0,1,1.774.851,20.1,20.1,0,0,1,2.468,1.569c.567.428.863.7.863.7" transform="translate(-55.731 -2.343)" fill="#fff"/>
        <path id="Trazado_915" data-name="Trazado 915" d="M200.46,14.019s-.1-.416-.241-1.153c-.145-.344-.271-.76-.477-1.207a9.006,9.006,0,0,0-.887-1.418,4.478,4.478,0,0,0-.6-.718,9.942,9.942,0,0,0-.724-.694l-.845-.64-.978-.549-.247-.145-.266-.1-.531-.205c-.181-.066-.356-.151-.543-.205l-.561-.133a13.185,13.185,0,0,0-2.359-.38h-1.81l-.6.078c-.4.054-.79.1-1.207.139l-1.146.266a17.169,17.169,0,0,0-2.148.6c-.338.115-.676.211-.99.332l-.905.38c-.573.259-1.134.44-1.593.682l-1.207.6c-.67.326-1.068.5-1.068.5s.326-.272.917-.736c.3-.229.658-.513,1.086-.827a16.373,16.373,0,0,1,1.5-.935l.881-.513a10.678,10.678,0,0,1,.99-.453l1.062-.465a7.572,7.572,0,0,1,1.152-.374l1.207-.356,1.279-.205.652-.091h2.009a14.211,14.211,0,0,1,2.637.483l.64.175c.211.078.4.181.6.266s.392.187.6.272l.29.139.272.175c.35.235.712.447,1.038.694l.905.754a10.35,10.35,0,0,1,.724.863,4.729,4.729,0,0,1,.567.881,7.584,7.584,0,0,1,.718,1.671,13.041,13.041,0,0,1,.247,1.376c0,.748-.036,1.177-.036,1.177" transform="translate(-70.798 -2.023)" fill="#fff"/>
        <path id="Trazado_916" data-name="Trazado 916" d="M285.5,22.749a7.4,7.4,0,0,0,.6,2.927,7.68,7.68,0,0,0,1.617,2.414,7.548,7.548,0,0,0,10.68,0,7.156,7.156,0,0,0,1.255-1.69h2.83l-.109.29a9.813,9.813,0,0,1-2.154,3.222,10.088,10.088,0,0,1-3.216,2.172,10.114,10.114,0,0,1-11.1-16.461,10.391,10.391,0,0,1,3.222-2.172,10.1,10.1,0,0,1,11.1,2.172,9.938,9.938,0,0,1,2.154,3.222,9.389,9.389,0,0,1,.772,3.168H285.539c0,.272-.036.525-.036.772m12.883-5.34a7.553,7.553,0,0,0-12.111,2h13.5a8.071,8.071,0,0,0-1.4-1.991" transform="translate(-112.213 -5.021)" fill="#fff"/>
        <path id="Trazado_917" data-name="Trazado 917" d="M296.65,4.99,300.138,0h4.128l-5.358,4.99Z" transform="translate(-117.646)" fill="#fff"/>
      </g>
    </g>
  </g>
</svg>
