<svg xmlns="http://www.w3.org/2000/svg" width="34.008" height="27.519" viewBox="0 0 34.008 27.519">
  <g id="Manito_Chimpa" data-name="Manito Chimpa" transform="translate(-1030.342 -6492.73)">
    <g id="Grupo_294" data-name="Grupo 294" transform="translate(1054.08 6515.873) rotate(-157)">
      <path id="Trazado_1433" data-name="Trazado 1433" d="M5.431,13.365A1.755,1.755,0,0,1,3.2,12.3L.136,4.573a1.75,1.75,0,0,1,.9-2.3L6.485.11A1.75,1.75,0,0,1,8.714,1.174L11.777,8.9a1.756,1.756,0,0,1-.895,2.3Z" transform="translate(0 0)" fill="#eba97b"/>
    </g>
    <g id="Grupo_298" data-name="Grupo 298" transform="translate(1051.144 6505.531) rotate(-157)">
      <path id="Trazado_1439" data-name="Trazado 1439" d="M2.359,5.974A1.365,1.365,0,0,1,.4,6.359h0A1.6,1.6,0,0,1,.418,4.223L3.224.66A1.356,1.356,0,0,1,5.187.281h0a1.6,1.6,0,0,1-.019,2.13Z" transform="translate(0 0)" fill="#eba97b"/>
    </g>
    <g id="Grupo_299" data-name="Grupo 299" transform="translate(1055.394 6515.712) rotate(-157)">
      <path id="Trazado_1440" data-name="Trazado 1440" d="M2.375,6.474A1.713,1.713,0,0,1,.06,5.081h0A2.546,2.546,0,0,1,1.437,2.209L6.644.127A1.71,1.71,0,0,1,8.958,1.521h0A2.542,2.542,0,0,1,7.587,4.395Z" transform="translate(0 0)" fill="#eba97b"/>
    </g>
    <g id="Grupo_300" data-name="Grupo 300" transform="translate(1056.23 6512.365) rotate(-157)">
      <path id="Trazado_1441" data-name="Trazado 1441" d="M3.01,7.093A2.082,2.082,0,0,1,.059,5.9h0A2.805,2.805,0,0,1,1.951,2.83L8.813.2a2.079,2.079,0,0,1,2.947,1.2h0A2.813,2.813,0,0,1,9.869,4.463Z" transform="translate(0 0)" fill="#eba97b"/>
    </g>
    <g id="Grupo_301" data-name="Grupo 301" transform="translate(1062.099 6508.499) rotate(-157)">
      <path id="Trazado_1442" data-name="Trazado 1442" d="M2.847,5.777A2.085,2.085,0,0,1,.075,4.79h0A2.156,2.156,0,0,1,1.7,2.293L7.911.158a2.086,2.086,0,0,1,2.774.99h0a2.156,2.156,0,0,1-1.623,2.5Z" transform="translate(0 0.563) rotate(-3)" fill="#eba97b"/>
    </g>
    <path id="Trazado_1444" data-name="Trazado 1444" d="M18.3,11.5l-4.482,5.947-1.151,2.111-1.03-3.825-2.677,1.7-.4-3.242-2.964.68.835-3.046-3.682.88.306-3.033L0,9.924,3.195,6.866l3.33-4.323s3.77-5.194,9.88-.736S18.3,11.5,18.3,11.5Z" transform="translate(1042.207 6520.25) rotate(-127)" fill="#703f19"/>
  </g>
</svg>
