<svg width="182" height="358" viewBox="0 0 182 358" fill="none" xmlns="http://www.w3.org/2000/svg">
<path d="M22.7889 26.4025C22.7118 24.8107 21.2471 23.6297 19.5511 23.7067L5.39236 24.5026C3.6964 24.6053 2.38588 25.966 2.46297 27.5321L3.02829 37.5194C3.10538 39.0855 4.57007 40.2922 6.26603 40.2152L20.4248 39.4193C22.1208 39.3166 23.4313 37.9559 23.3542 36.3898L22.7889 26.4025Z" fill="#DFAA81"/>
<path d="M28.9823 28.6362C29.6761 27.0444 29.1621 25.3756 27.8259 24.8877C26.4897 24.3999 24.8451 25.2985 24.1513 26.916L20.6052 35.0547C19.9114 36.6465 20.4253 38.3154 21.7616 38.8032C23.0978 39.2653 24.7423 38.3667 25.4105 36.8006L28.9566 28.6619L28.9823 28.6362Z" fill="#DFAA81"/>
<path d="M26.0524 29.3807C27.5942 29.7915 29.0075 28.9956 29.2644 27.6092C29.4957 26.2228 28.4679 24.7593 26.9004 24.3485L19.0372 22.2432C17.4955 21.8325 16.0565 22.6284 15.8509 24.0404C15.6196 25.4268 16.6732 26.8903 18.1893 27.3011L26.0524 29.4064V29.3807Z" fill="#DFAA81"/>
<path d="M8.9632 24.785C8.86042 22.9364 7.21584 21.55 5.33999 21.6784C3.43845 21.8068 2.02515 23.3986 2.12793 25.2471L2.74466 34.6696C2.84745 36.5181 4.49201 37.9045 6.36786 37.7761C8.26939 37.6478 9.7084 36.056 9.57991 34.2074L8.9632 24.785Z" fill="#DFAA81"/>
<g style="mix-blend-mode:multiply" opacity="0.29">
<path d="M23.0705 23.2959C23.2247 24.1945 23.3532 25.2472 23.3789 26.4282C23.3789 27.2241 23.3789 27.9686 23.3275 28.6362C23.0962 28.5591 22.8393 28.5078 22.608 28.4308C22.5309 26.6593 22.4538 24.8877 22.3767 23.1162C22.608 23.1932 22.8393 23.2446 23.0705 23.3216V23.2959Z" fill="#1C1B19"/>
</g>
<path d="M15.7738 24.0404C15.6453 21.8068 14.0264 20.0609 12.1248 20.1636C10.2233 20.2663 8.7843 22.1919 8.91278 24.4255L9.52951 35.9533C9.65799 38.1869 11.2769 39.9328 13.1784 39.8301C15.0799 39.7274 16.5189 37.8018 16.3905 35.5681L15.748 24.0661L15.7738 24.0404Z" fill="#DFAA81"/>
<path d="M22.2499 13.7965C22.1985 11.7169 20.5026 10.0994 18.601 10.1507C16.7252 10.2021 15.3376 11.9479 15.4147 14.0019L16.1085 30.8698C16.1599 32.9494 17.753 34.5669 19.6546 34.5156C21.5304 34.4642 23.0208 32.7184 22.9694 30.6644L22.2756 13.7965H22.2499Z" fill="#DFAA81"/>
<g style="mix-blend-mode:multiply" opacity="0.6">
<path d="M3.20729 36.9802L2.74475 32.8724L6.57352 35.5938L8.98899 30.9982L12.4066 34.3101L15.9013 31.2806L17.88 34.8493L21.7087 30.6901L24.3555 34.4642L23.5589 36.0303L17.1091 37.314L8.141 38.3667L3.20729 36.9802Z" fill="#1C1B19"/>
</g>
<path d="M30.3434 96.5958L27.1571 35.0803L27.5682 30.9981L22.4546 35.4141L20.2961 30.459L16.6215 34.6439L13.1011 30.8441L11.3538 35.9276L7.01105 31.1522L4.54419 35.7222L0.48414 32.4616L2.05163 39.8301L5.1866 97.9565C5.28938 98.9064 5.54634 100.319 6.34293 101.756C8.70701 105.941 13.615 106.814 14.3859 106.942C19.9878 107.918 26.5404 103.81 30.3691 96.5958H30.3434Z" fill="#694121"/>
<path d="M8.11605 104.041L48.4338 162.245C56.5796 173.978 62.4641 172.591 68.2201 168.638C75.9804 163.272 65.9845 143.246 56.965 130.255L28.8788 89.6895" fill="#694121"/>
<g style="mix-blend-mode:soft-light" opacity="0.9">
<path d="M104.068 357.086C71.7816 357.086 45.6084 353.902 45.6084 349.975C45.6084 346.047 71.7816 342.863 104.068 342.863C136.354 342.863 162.527 346.047 162.527 349.975C162.527 353.902 136.354 357.086 104.068 357.086Z" fill="#324E93"/>
</g>
<path d="M138.629 343.171C138.629 344.609 137.241 345.764 135.494 345.764L121.027 345.841C119.279 345.841 117.866 344.686 117.866 343.274L117.815 334.262C117.815 332.824 119.202 331.669 120.95 331.643L135.417 331.566C137.164 331.566 138.552 332.722 138.578 334.134L138.629 343.145V343.171Z" fill="#E0AA81"/>
<path d="M143.743 343.582C144.385 345.148 143.974 346.791 142.843 347.253C141.687 347.715 140.248 346.842 139.606 345.302L136.317 337.343C135.674 335.777 136.085 334.134 137.216 333.672C138.372 333.209 139.811 334.082 140.454 335.623L143.743 343.582Z" fill="#E0AA81"/>
<path d="M112.393 350.077C110.645 350.334 109.052 349.307 108.847 347.844C108.641 346.355 109.875 344.968 111.622 344.711L120.564 343.453C122.312 343.197 123.905 344.224 124.11 345.687C124.316 347.176 123.083 348.563 121.335 348.819L112.393 350.077Z" fill="#E0AA81"/>
<path d="M119.665 352.131C117.763 352.773 115.836 352.106 115.322 350.642C114.834 349.179 115.964 347.459 117.84 346.817L127.553 343.531C129.455 342.889 131.382 343.556 131.896 345.02C132.384 346.483 131.254 348.203 129.378 348.845L119.665 352.131Z" fill="#E0AA81"/>
<path d="M128.787 351.361C127.22 352.157 125.447 351.823 124.804 350.591C124.187 349.359 124.933 347.715 126.5 346.919L134.543 342.812C136.111 342.016 137.884 342.349 138.526 343.582C139.143 344.814 138.398 346.457 136.83 347.253L128.787 351.361Z" fill="#E0AA81"/>
<path d="M93.6348 343.248C93.6348 344.686 92.2472 345.841 90.4998 345.841L76.0327 345.918C74.2853 345.918 72.8977 344.763 72.872 343.351L72.8206 334.339C72.8206 332.901 74.2082 331.746 75.9556 331.72L90.4227 331.643C92.1444 331.643 93.5577 332.799 93.5834 334.211L93.6348 343.222V343.248Z" fill="#E0AA81"/>
<path d="M98.7487 343.684C99.3911 345.251 98.98 346.894 97.8493 347.356C96.693 347.818 95.254 346.945 94.6116 345.405L91.3224 337.446C90.68 335.879 91.0912 334.236 92.2218 333.774C93.3782 333.312 94.8172 334.185 95.4596 335.725L98.7487 343.684Z" fill="#E0AA81"/>
<path d="M67.3987 350.18C65.6513 350.437 64.0582 349.41 63.8526 347.946C63.647 346.457 64.8805 345.071 66.6278 344.814L75.5702 343.556C77.3175 343.299 78.9107 344.326 79.1163 345.79C79.3219 347.279 78.0884 348.665 76.3411 348.922L67.3987 350.18Z" fill="#E0AA81"/>
<path d="M74.6705 352.234C72.7689 352.876 70.816 352.208 70.3278 350.745C69.8395 349.281 70.9702 347.561 72.846 346.919L82.5593 343.633C84.4608 342.991 86.3881 343.659 86.902 345.122C87.3902 346.586 86.2596 348.306 84.3837 348.948L74.6705 352.234Z" fill="#E0AA81"/>
<path d="M83.792 351.464C82.2245 352.26 80.4515 351.926 79.8091 350.694C79.1923 349.461 79.9375 347.818 81.505 347.022L89.548 342.914C91.1155 342.118 92.8886 342.452 93.531 343.685C94.1734 344.917 93.4025 346.56 91.835 347.356L83.792 351.464Z" fill="#E0AA81"/>
<path d="M115.245 335.058L116.478 328.331L116.735 275.751L117.044 211.822C117.095 198.933 122.877 196.956 129.969 196.982C139.605 197.033 142.74 217.034 142.663 231.334L142.457 275.879L142.303 331.515L142.92 335.186L137.498 331.438L135.571 336.008L131.613 332.388L128.222 335.957L126.192 331.438L122.003 335.931L119.253 331.926L115.296 335.058H115.245Z" fill="#694121"/>
<path d="M70.9965 334.853L72.2299 328.126L72.4869 275.545L72.7952 211.616C72.8466 198.728 78.6283 196.751 85.7206 196.777C95.3567 196.828 98.4917 216.828 98.4403 231.129L98.2347 275.673L98.0806 331.31L98.6973 334.981L93.2753 331.232L91.3481 335.802L87.3908 332.182L83.9732 335.751L81.9432 331.232L77.7547 335.725L75.0051 331.72L71.0222 334.853H70.9965Z" fill="#694121"/>
<g style="mix-blend-mode:multiply" opacity="0.5">
<path d="M58.9695 148.432C62.3871 143.862 67.9118 137.572 76.1861 131.923C86.2077 125.068 95.8182 122.167 101.908 120.858L112.752 120.909C140.402 121.038 162.706 147.354 162.552 179.703L162.398 210.923C162.578 214.903 163.169 235.493 147.545 252.259C135.879 264.762 121.823 268.074 116.761 268.998C116.761 268.536 116.761 268.1 116.761 267.637C112.058 265.738 105.326 264.069 99.2101 266.816C98.9018 266.97 98.5677 267.124 98.2594 267.278C98.2594 267.868 98.2594 268.459 98.2594 269.049C95.073 268.793 90.9102 268.125 86.2591 266.431C80.0149 264.146 75.4666 260.936 72.5886 258.549C72.5886 256.829 72.64 255.083 72.64 253.363C71.8177 252.182 70.9954 251.001 70.1731 249.794V247.868C70.1731 246.585 69.171 245.506 67.9118 245.326C67.6549 243.606 67.1923 241.963 66.7555 240.14C66.5242 239.242 65.8561 238.651 65.0595 238.42C65.1109 237.522 65.2394 236.623 65.3422 235.878C65.6762 233.696 61.9503 232.489 60.8967 233.157C59.9459 233.773 60.6911 235.776 60.1258 235.981C59.2521 236.289 56.6825 232.104 54.9608 227.56C54.2927 225.814 53.8045 224.171 53.5732 223.144C52.3655 218.06 51.8001 206.199 52.3141 190.666C52.4683 183.58 52.6224 176.468 52.7766 169.382C52.9822 165.377 53.7274 160.088 56.0658 154.337C56.9651 152.103 57.9673 150.127 58.9952 148.406L58.9695 148.432Z" fill="#1C1D1B"/>
</g>
<path d="M54.6274 208.869C54.4732 241.193 76.3666 267.535 103.528 267.637L114.192 267.689C141.353 267.817 163.503 241.707 163.658 209.357L163.812 178.137C163.966 145.788 142.072 119.472 114.911 119.343L104.247 119.292C77.0861 119.163 54.9357 145.274 54.7816 177.624L54.6274 208.844V208.869Z" fill="#694121"/>
<path d="M64.6752 218.42C64.5982 240.192 78.5513 257.907 95.8194 258.01L102.603 258.061C119.897 258.164 133.953 240.603 134.03 218.856L134.107 197.855C134.184 176.083 120.231 158.368 102.963 158.265L96.1791 158.214C78.8854 158.111 64.8294 175.672 64.7523 197.444L64.6752 218.446V218.42Z" fill="#E0AA81"/>
<g style="mix-blend-mode:multiply" opacity="0.5">
<path d="M147.468 170.615C148.111 172.797 149.061 176.083 150.115 180.14C153.353 192.823 153.995 201.372 157.541 220.037C159.237 228.972 160.214 235.545 160.933 240.525C161.062 241.45 163.477 258.497 161.55 277.291C161.242 280.372 160.008 284.608 156.668 288.459C154.869 290.539 152.967 291.823 151.682 292.567C151.4 286.38 151.4 281.168 151.477 277.24C151.58 272.362 151.811 268.382 152.017 265.044C152.376 259.139 152.659 256.752 153.019 250.256C153.199 246.918 153.327 244.197 153.378 242.528C152.351 237.265 151.4 232.618 150.577 228.767C148.625 219.421 146.029 207.431 143.511 193.465C142.971 190.435 142.175 185.865 141.918 179.703C141.738 175.313 141.918 171.642 142.098 169.125C143.871 169.639 145.669 170.152 147.443 170.666L147.468 170.615Z" fill="#1C1D1B"/>
</g>
<g style="mix-blend-mode:multiply" opacity="0.5">
<path d="M164.711 147.456L154.638 164.941L135.879 153.439C135.879 153.439 141.096 148.868 143.357 149.895L157.182 160.114L164.711 147.456Z" fill="#1C1D1B"/>
</g>
<g style="mix-blend-mode:multiply" opacity="0.5">
<path d="M139.555 154.851L103.76 171.975L72.4355 154.003L61.643 159.575L59.2275 161.038C59.4074 160.088 59.6901 158.65 60.1269 156.93C60.4096 155.801 60.7179 154.799 60.7693 154.594C61.8743 151.282 75.3135 151.076 78.2429 151.051C88.1874 157.264 98.132 163.451 108.077 169.665L139.503 154.851H139.555Z" fill="#1C1D1B"/>
</g>
<path d="M113.267 0.0864258C113.267 0.0864258 110.157 5.96582 114.14 6.17122C130.792 6.99279 172.703 11.8452 177.251 39.599C183.547 77.9563 180.437 135.569 180.437 135.569L175.992 134.748L181.105 144.196L172.574 142.168L174.322 151.641L165.919 147.893L157.645 161.808L144.796 152.309L108.282 169.69L79.8613 151.975L64.0323 159.934L56.6831 147.893L49.7965 150.563L51.441 140.114L43.064 140.499L47.6637 129.176L39.8005 133.926C39.8005 133.926 37.8219 68.842 43.2439 37.7505C47.4838 13.4113 74.979 7.53195 92.1186 6.24824C93.7117 6.11987 96.5383 1.85795 97.9259 1.8066C97.9259 1.8066 100.264 6.76172 101.344 5.91447C105.044 3.06463 113.241 0.137774 113.241 0.137774L113.267 0.0864258Z" fill="#694121"/>
<g filter="url(#filter0_d_777_5647)">
<path d="M51.6466 62.5518C51.6466 62.5518 52.88 38.5721 72.7948 37.5451C94.7395 36.4155 103.759 46.6081 107.202 52.8983C110.62 46.3514 119.665 35.6196 141.738 38.3154C163.555 40.9855 164.942 64.2207 164.942 64.2207C164.942 64.2207 166.201 91.2299 151.349 96.0567L151.143 110.563C151.143 110.563 147.392 138.393 109.618 139.883C108.975 139.934 108.333 139.934 107.691 139.934C107.074 139.934 106.431 139.934 105.789 139.934C67.9895 139.087 63.6468 111.436 63.6468 111.436L63.5697 96.8012C50.0277 91.4353 51.6466 62.5775 51.6466 62.5775V62.5518Z" fill="#E0AA81"/>
</g>
<path d="M119.254 82.7831C119.254 80.2927 121.232 78.2644 123.725 78.2388C126.217 78.2131 128.247 80.2157 128.273 82.7061C128.299 85.1965 126.295 87.2247 123.802 87.2504C121.309 87.2761 119.279 85.2735 119.254 82.7831Z" fill="#694121"/>
<path d="M84.3061 81.217C84.3061 78.8549 86.2076 76.9037 88.5717 76.9037C90.9357 76.9037 92.8887 78.8036 92.8887 81.1656C92.8887 83.5276 90.9871 85.4789 88.6231 85.5046C86.259 85.5302 84.3061 83.6047 84.3061 81.2426V81.217Z" fill="#694121"/>
<path d="M135.828 109.972C133.104 111.923 115.811 123.913 95.3305 118.29C86.9791 115.98 81.0689 111.564 77.5485 108.38C86.5423 110.896 98.9537 113.233 113.729 112.771C122.132 112.514 129.584 111.384 135.802 109.998L135.828 109.972Z" fill="#3E291B"/>
<path d="M99.4418 98.5727C99.4418 98.5727 102.14 101.962 104.016 99.1889L104.17 96.031L98.9792 95.7485L99.4418 98.547V98.5727Z" fill="#3E291B"/>
<path d="M112.29 99.1375C112.29 99.1375 109.284 102.244 107.691 99.3172L107.819 96.1593L113.01 96.3904L112.29 99.1375Z" fill="#3E291B"/>
<path d="M154.766 284.326C155.485 285.712 157.284 286.226 158.774 285.455L171.211 279.063C172.702 278.292 173.344 276.546 172.625 275.16L168.102 266.405C167.382 265.019 165.609 264.505 164.093 265.275L151.656 271.668C150.166 272.439 149.523 274.184 150.243 275.571L154.766 284.326Z" fill="#DFAA81"/>
<path d="M149.216 284.916C149.139 286.405 150.064 287.586 151.272 287.561C152.479 287.561 153.533 286.328 153.61 284.839L153.996 277.24C154.073 275.75 153.148 274.569 151.94 274.595C150.732 274.595 149.679 275.828 149.601 277.317L149.216 284.942V284.916Z" fill="#DFAA81"/>
<path d="M168.282 284.3C169.284 285.943 171.262 286.508 172.701 285.584C174.14 284.659 174.474 282.58 173.472 280.937L168.307 272.593C167.305 270.949 165.326 270.385 163.887 271.309C162.448 272.233 162.114 274.313 163.117 275.956L168.282 284.326V284.3Z" fill="#DFAA81"/>
<path d="M164.067 287.33C165.275 289.332 167.434 290.231 168.873 289.332C170.312 288.434 170.517 286.072 169.284 284.043L163.065 273.748C161.858 271.745 159.699 270.847 158.26 271.771C156.821 272.67 156.641 275.057 157.849 277.06L164.067 287.33Z" fill="#DFAA81"/>
<path d="M159.545 291.438C160.625 293.312 162.68 294.133 164.145 293.26C165.61 292.413 165.918 290.179 164.865 288.305L159.366 278.729C158.286 276.855 156.231 276.033 154.766 276.906C153.301 277.753 152.993 279.987 154.046 281.861L159.545 291.438Z" fill="#DFAA81"/>
<g style="mix-blend-mode:multiply" opacity="0.6">
<path d="M173.652 272.644L173.601 276.726L169.284 272.875L166.355 277.086L163.425 273.44L159.622 275.982L158.132 272.259L153.892 275.853L151.733 271.848L152.71 270.436L159.185 269.922L168.076 269.974L173.652 272.644Z" fill="#1C1B19"/>
</g>
<path d="M153.07 220.166L148.984 270.744L148.111 274.698L153.635 271.001L155.152 276.11L159.237 272.464L162.244 276.598L164.556 271.822L168.231 277.009L171.212 272.824L174.809 276.521L174.141 269.127L177.867 221.86C177.867 220.91 177.816 219.524 177.173 218.009C175.375 213.619 170.672 212.207 169.927 211.976C164.582 210.333 157.644 213.568 153.044 220.191L153.07 220.166Z" fill="#694121"/>
<path d="M176.916 218.035L167.254 169.382C164.479 155.57 158.594 154.517 151.862 155.878C142.74 157.7 143.947 179.729 147.005 195.031L152.504 222.939" fill="#694121"/>
<defs>
<filter id="filter0_d_777_5647" x="51.5859" y="37.4586" width="113.983" height="103.075" filterUnits="userSpaceOnUse" color-interpolation-filters="sRGB">
<feFlood flood-opacity="0" result="BackgroundImageFix"/>
<feColorMatrix in="SourceAlpha" type="matrix" values="0 0 0 0 0 0 0 0 0 0 0 0 0 0 0 0 0 0 127 0" result="hardAlpha"/>
<feOffset dx="0.6" dy="0.6"/>
<feColorMatrix type="matrix" values="0 0 0 0 0 0 0 0 0 0 0 0 0 0 0 0 0 0 0.42 0"/>
<feBlend mode="normal" in2="BackgroundImageFix" result="effect1_dropShadow_777_5647"/>
<feBlend mode="normal" in="SourceGraphic" in2="effect1_dropShadow_777_5647" result="shape"/>
</filter>
</defs>
</svg>
