<svg width="60" height="60" viewBox="0 0 60 60" fill="none" xmlns="http://www.w3.org/2000/svg">
<mask id="mask0_777_5611" style="mask-type:alpha" maskUnits="userSpaceOnUse" x="0" y="0" width="60" height="60">
<circle r="30" transform="matrix(1 0 0 -1 30 30)" fill="#36A9E1"/>
</mask>
<g mask="url(#mask0_777_5611)">
<path d="M31.759 15.7466C33.018 15.7708 34.1671 16.9465 34.3226 18.3737L35.6608 30.2641C35.8315 31.6913 34.9292 32.8276 33.6672 32.8003L25.7297 32.6336C24.4738 32.6033 23.3124 31.4276 23.1509 30.0035L21.8066 18.1071C21.6511 16.6799 22.5473 15.5466 23.8032 15.5799L31.756 15.7466H31.759Z" fill="#E0AC83"/>
<path d="M36.3124 43.7634C36.4312 45.5633 35.2455 47.1451 33.7031 47.2845C32.1424 47.4329 30.7981 46.0966 30.7006 44.2846L27.6249 34.7457C27.5274 32.9518 31.234 31.6458 32.7917 31.5004C34.3432 31.358 35.6875 32.7033 35.7881 34.5033L36.3124 43.7604V43.7634Z" fill="#E0AC83"/>
<path d="M41.8484 27.943C43.3756 27.7248 44.9454 28.7066 45.3447 30.1307C45.7471 31.5488 44.8265 32.8791 43.2994 33.0942L35.4502 34.1972C33.923 34.4123 32.3532 33.4397 31.9478 32.0094C31.5454 30.5913 32.469 29.258 33.9962 29.0399L41.8454 27.943H41.8484Z" fill="#E0AC83"/>
<path d="M39.584 15.6133C40.971 15.3921 42.4219 16.2648 42.8121 17.5556C43.2023 18.8465 42.3823 20.0767 40.9893 20.2979L33.8351 21.4251C32.436 21.6524 30.9941 20.7858 30.5979 19.4828C30.2108 18.1919 31.0307 16.9617 32.4207 16.7375L39.581 15.6133H39.584Z" fill="#E0AC83"/>
<path d="M42.0356 23.9856C43.6694 23.9219 45.1874 24.9855 45.4191 26.3521C45.6569 27.7157 44.5168 28.8793 42.883 28.9399L34.5126 29.252C32.8787 29.3187 31.3637 28.249 31.129 26.8885C30.9004 25.5097 32.0283 24.3583 33.6652 24.2916L42.0356 23.9856Z" fill="#E0AC83"/>
<path d="M40.4689 19.4494C41.9869 19.2404 43.5507 20.213 43.9409 21.616C44.3371 23.025 43.4166 24.325 41.8894 24.5401L34.0646 25.5855C32.5405 25.7885 30.992 24.8189 30.5988 23.4159C30.2056 22.0099 31.1231 20.7039 32.6563 20.4979L40.472 19.4494H40.4689Z" fill="#E0AC83"/>
<g style="mix-blend-mode:multiply" opacity="0.6">
<path d="M29.2573 36.0214L32.7902 36.0032L29.0134 31.2337L32.3634 28.452L27.846 26.5915L30.9704 22.3766L26.8431 21.5009L29.87 17.2193L23.9138 17.5071L21.7617 18.1253L22.7097 23.1311L26.5779 31.0307L29.2573 36.0214Z" fill="#1B1A19"/>
</g>
<path d="M28.5616 13.5467L21.6696 16.4648C21.6696 16.4648 -23.4807 12.3377 -28.8882 18.195C-34.7347 24.5341 -34.7652 76.2073 -34.7652 76.2073C-35.954 87.5401 -31.2841 90.446 -25.2944 91.8762C-17.18 93.8004 -10.2179 78.289 -11.2847 64.3503C-11.2847 64.3503 -13.6471 36.4698 -11.614 34.7669C-8.94371 32.5428 26.4401 34.9063 26.4401 34.9063L33.8838 38.7273L28.3635 31.7761L32.6188 29.6035L26.9217 27.3521L31.5093 23.6099L25.9584 22.2342L30.9972 18.0404L24.285 18.3283L28.5586 13.5437L28.5616 13.5467Z" fill="#694121"/>
</g>
</svg>
