<svg width="28" height="23" viewBox="0 0 28 23" fill="none" xmlns="http://www.w3.org/2000/svg">
<path d="M9.80978 15.1604L15.7221 8.59558C17.9582 6.11219 20.1808 3.61853 22.4369 1.15223C23.8 -0.341561 26.0948 -0.00656231 26.8804 1.78804C27.384 2.94001 27.1473 3.98942 26.3147 4.91236C23.6389 7.88172 20.9653 10.8522 18.2939 13.8239L11.8846 20.9408C10.5081 22.467 8.77402 22.4294 7.468 20.8348C5.33494 18.2335 3.20355 15.6304 1.07385 13.0257C0.00787678 11.7199 0.096846 10.0518 1.282 9.03824C2.46716 8.02472 4.09886 8.22298 5.1749 9.51851C6.56654 11.1952 7.93803 12.889 9.3196 14.5759C9.45893 14.7519 9.61001 14.9263 9.80978 15.1604Z" fill="#4ACB47"/>
</svg>
