<svg xmlns="http://www.w3.org/2000/svg" width="19.298" height="19.299" viewBox="0 0 19.298 19.299">
  <path id="phone" d="M16.428,13.853l-2.349,2.33a1.7,1.7,0,0,1-1.254.477,10.863,10.863,0,0,1-5.386-2.03A20.775,20.775,0,0,1,1.152,7.772,8.873,8.873,0,0,1,0,3.862,1.71,1.71,0,0,1,.481,2.591L2.83.244A.777.777,0,0,1,4.1.456L5.991,4.039a1.04,1.04,0,0,1-.212,1.183l-.865.865a.427.427,0,0,0-.088.247A7.377,7.377,0,0,0,7.05,9.617c.888.815,1.843,1.919,3.081,2.18a.488.488,0,0,0,.45-.044l1.006-1.024a1.149,1.149,0,0,1,1.218-.176h.018l3.408,2.012a.82.82,0,0,1,.194,1.288Z" transform="matrix(0.985, 0.174, -0.174, 0.985, 2.893, 0)" fill="#fff"/>
</svg>
