<svg id="Icono_precio" data-name="Icono precio" xmlns="http://www.w3.org/2000/svg" xmlns:xlink="http://www.w3.org/1999/xlink" width="7.285" height="13" viewBox="0 0 7.285 13">
  <defs>
    <clipPath id="clip-path">
      <rect id="Rectángulo_5996" data-name="Rectángulo 5996" width="7.285" height="13" fill="#fff"/>
    </clipPath>
  </defs>
  <g id="Grupo_6163" data-name="Grupo 6163" clip-path="url(#clip-path)">
    <path id="Trazado_19106" data-name="Trazado 19106" d="M3.018,7.1A2.681,2.681,0,0,1,.693,6.274,2.5,2.5,0,0,1,0,4.546a2.54,2.54,0,0,1,.9-2,2.8,2.8,0,0,1,2.126-.638c0-.088.01-.154.01-.221,0-.353-.006-.706,0-1.058A.609.609,0,0,1,3.652,0a.621.621,0,0,1,.6.646c0,.409,0,.817,0,1.241.217.012.422.018.627.034A2.584,2.584,0,0,1,7.246,4.5a.6.6,0,0,1-.588.611.607.607,0,0,1-.623-.6A1.359,1.359,0,0,0,5.064,3.2a5.09,5.09,0,0,0-.8-.094V5.9a2.66,2.66,0,0,1,2.468,1,2.487,2.487,0,0,1,.54,1.782A2.549,2.549,0,0,1,6.3,10.529a2.863,2.863,0,0,1-2.045.566c0,.356,0,.694,0,1.033,0,.1.006.2,0,.3A.623.623,0,0,1,3.633,13a.6.6,0,0,1-.591-.572c-.015-.359-.006-.718-.008-1.077,0-.074,0-.149,0-.237-.229-.013-.441-.022-.652-.037A2.588,2.588,0,0,1,.063,8.852a1.721,1.721,0,0,1,0-.522.572.572,0,0,1,.619-.443.592.592,0,0,1,.554.5c.022.136.021.278.053.411A1.364,1.364,0,0,0,2.627,9.869c.125,0,.251,0,.392,0ZM4.261,9.858a1.476,1.476,0,0,0,1.6-.666A1.313,1.313,0,0,0,5.8,7.7a1.517,1.517,0,0,0-1.54-.581ZM3.013,5.885V3.144a1.478,1.478,0,0,0-1.563.617,1.306,1.306,0,0,0-.021,1.461,1.506,1.506,0,0,0,1.584.663" transform="translate(0 0)" fill="#fff"/>
  </g>
</svg>
