<svg width="21" height="21" viewBox="0 0 21 21" fill="none" xmlns="http://www.w3.org/2000/svg">
<path d="M4.50052 13C5.37518 12.9974 6.21675 12.6653 6.85752 12.07L13.1175 15.647C12.9078 16.4666 13.0002 17.3343 13.378 18.0913C13.7557 18.8483 14.3935 19.4439 15.1745 19.7692C15.9555 20.0944 16.8275 20.1274 17.6309 19.8623C18.4343 19.5971 19.1153 19.0515 19.5493 18.3252C19.9832 17.599 20.1411 16.7408 19.994 15.9076C19.8469 15.0745 19.4047 14.3222 18.7483 13.7885C18.0918 13.2548 17.2652 12.9753 16.4195 13.0013C15.5739 13.0273 14.7659 13.357 14.1435 13.93L7.88352 10.353C7.94952 10.103 7.98552 9.84396 7.99152 9.58496L14.1415 6.06996C14.7337 6.60874 15.4932 6.92747 16.2925 6.97268C17.0918 7.01789 17.8823 6.78684 18.5315 6.31828C19.1806 5.84972 19.6489 5.17217 19.8577 4.39929C20.0666 3.6264 20.0032 2.80522 19.6784 2.0735C19.3535 1.34178 18.7869 0.744037 18.0735 0.38056C17.3602 0.0170831 16.5436 -0.0900175 15.7607 0.077226C14.9777 0.244469 14.2761 0.675882 13.7736 1.29909C13.271 1.92229 12.9981 2.69937 13.0005 3.49996C13.0045 3.78796 13.0435 4.07497 13.1175 4.35296L7.43352 7.59997C7.1039 7.09003 6.64729 6.67461 6.10854 6.39454C5.5698 6.11446 4.96746 5.97936 4.3607 6.00251C3.75395 6.02566 3.16365 6.20627 2.64781 6.52658C2.13197 6.84689 1.70834 7.29589 1.41853 7.82946C1.12872 8.36303 0.982709 8.96282 0.994839 9.56989C1.00697 10.177 1.17683 10.7704 1.48772 11.292C1.79861 11.8136 2.23984 12.2453 2.76807 12.5447C3.29629 12.8442 3.89333 13.0011 4.50052 13Z" fill="#00214B"/>
</svg>
