<svg id="Icono_tiempo" data-name="Icono tiempo" xmlns="http://www.w3.org/2000/svg" xmlns:xlink="http://www.w3.org/1999/xlink" width="11" height="11" viewBox="0 0 11 11">
  <defs>
    <clipPath id="clip-path">
      <rect id="Rectángulo_5995" data-name="Rectángulo 5995" width="11" height="11" fill="#fff"/>
    </clipPath>
  </defs>
  <g id="Grupo_6161" data-name="Grupo 6161" clip-path="url(#clip-path)">
    <path id="Trazado_19104" data-name="Trazado 19104" d="M5.844,11H5.156c-.134-.017-.269-.031-.4-.05A5.4,5.4,0,0,1,2.029,9.76,5.426,5.426,0,0,1,.086,6.46C.049,6.256.028,6.05,0,5.845V5.158c.006-.035.014-.069.019-.1.033-.23.052-.463.1-.689A5.392,5.392,0,0,1,2.427.948,5.345,5.345,0,0,1,6.393.076,5.263,5.263,0,0,1,9.118,1.368,5.39,5.39,0,0,1,11,5.388a5.216,5.216,0,0,1-.765,2.906,5.429,5.429,0,0,1-3.785,2.623c-.2.038-.4.057-.6.084m4.424-5.495a4.768,4.768,0,1,0-4.775,4.762,4.777,4.777,0,0,0,4.775-4.762" transform="translate(0 -0.001)" fill="#fff"/>
    <path id="Trazado_19105" data-name="Trazado 19105" d="M178.875,78.573c0-.487,0-.974,0-1.46a.365.365,0,0,1,.719-.09.634.634,0,0,1,.011.149c0,.863,0,1.725,0,2.588a.2.2,0,0,0,.088.178c.533.422,1.063.849,1.594,1.273a.364.364,0,0,1,.143.38.34.34,0,0,1-.24.266.384.384,0,0,1-.379-.087c-.331-.268-.664-.533-1-.8-.257-.206-.513-.413-.772-.616a.415.415,0,0,1-.168-.352c0-.476,0-.952,0-1.428" transform="translate(-173.741 -74.542)" fill="#fff"/>
  </g>
</svg>
