<svg xmlns="http://www.w3.org/2000/svg" width="123.715" height="241.514" viewBox="0 0 123.715 241.514">
  <g id="Grupo_14513" data-name="Grupo 14513" transform="translate(-214.094 -874.136)">
    <path id="Trazado_24678" data-name="Trazado 24678" d="M1761.118,216.123l1.511-56.109a101.442,101.442,0,0,0-16.511,7.442v49.56l15-.042c.1,0,0-.61,0-.85" transform="translate(-1532.024 718.882)" fill="#dea22c"/>
    <path id="Trazado_24679" data-name="Trazado 24679" d="M1746.118,489.286V534.2a91.135,91.135,0,0,0,15,5.125v-49.85c0-.066-.156-.192-.216-.192Z" transform="translate(-1532.024 572.662)" fill="#dea22c"/>
    <path id="Trazado_24681" data-name="Trazado 24681" d="M1778.477,199.257a28.513,28.513,0,0,1,17.284-5.706q10.788,0,17.448,6.175a20.3,20.3,0,0,1,6.661,15.554,23.757,23.757,0,0,1-4.365,13.6,28.617,28.617,0,0,1-11.937,10.083c-5.236,2.45-13.442,4.091-23.6,4.924V281.4c16.928.21,30.341,3.908,39.544,11.1s13.664,16,13.664,26.418a32.193,32.193,0,0,1-10.3,24.073c-6.823,6.566-15.453,9.849-25.818,9.849q-14.917,0-24.668-8.676a24.333,24.333,0,0,1-4.268-4.683v49.881a93.728,93.728,0,0,0,26.543,3.652q35.856,0,59.013-21.494t23.16-52.445q0-21.1-11.982-36.657t-33.242-21.807q16.185-7.815,24.672-20.478a49.178,49.178,0,0,0,8.488-27.981q0-24.7-19.437-42.675T1797.2,151.5a78.924,78.924,0,0,0-29.082,5.25v56.537a27,27,0,0,1,10.359-14.031" transform="translate(-1539.024 722.635)" fill="#fddb00"/>
  </g>
</svg>
