<svg xmlns="http://www.w3.org/2000/svg" width="121.278" height="233.452" viewBox="0 0 121.278 233.452">
  <g id="Grupo_14510" data-name="Grupo 14510" transform="translate(366.82 -882.198)">
    <path id="Trazado_24675" data-name="Trazado 24675" d="M1004.481,202.457A28.765,28.765,0,0,1,1027.1,192.08q13.447,0,21.961,8.6,8.535,8.6,8.525,21.762,0,12.7-8.242,28.424c-5.492,10.481-16.451,24.344-33.073,41.588l-21.153,22.21v70.285H1101.4V344.733h-79.22l24.944-26.838q29.934-31.907,41.2-55.24,11.261-23.386,11.264-43.652,0-17.037-9.293-33.52a64.763,64.763,0,0,0-24.782-25.241c-10.327-5.833-22.141-8.748-35.639-8.748-13.018,0-24.837,2.5-34.749,7.5v68.211c1.1-10.259,3.916-18.514,9.363-24.75" transform="translate(-1346.938 730.704)" fill="#fddb00"/>
    <path id="Trazado_24676" data-name="Trazado 24676" d="M987.118,447.695l-15,12.661v57.612h15Z" transform="translate(-1338.938 597.682)" fill="#dea22c"/>
    <g id="Grupo_14509" data-name="Grupo 14509">
      <path id="Trazado_24677" data-name="Trazado 24677" d="M987.118,228.276V165.114a90.419,90.419,0,0,0-15,7.048v59.352h14.518c.048-1.02.482-2.2.482-3.238" transform="translate(-1338.938 724.652)" fill="#dea22c"/>
      <rect id="Rectángulo_15183" data-name="Rectángulo 15183" width="15" height="5" transform="translate(-366.82 952.559)" fill="#dea22c"/>
    </g>
  </g>
</svg>
