<svg xmlns="http://www.w3.org/2000/svg" width="136.893" height="255.647" viewBox="0 0 136.893 255.647">
  <g id="Grupo_14515" data-name="Grupo 14515" transform="translate(-1362.078 -865.241)">
    <path id="Trazado_24683" data-name="Trazado 24683" d="M3324.366,297.63a43.043,43.043,0,0,1,17.737-3.9,40.3,40.3,0,0,1,28.625,11.114q11.8,11.116,11.824,28.422,0,17.817-12.673,29.185t-30.824,11.368A48.919,48.919,0,0,1,3315,367.794a1.549,1.549,0,0,0-.88-.419v48.511a139.187,139.187,0,0,0,23.613,2.048q40.976,0,69.64-25.027,28.581-25.028,28.624-61.51,0-36.142-25.833-59.3-25.854-23.163-64.866-23.162a71.41,71.41,0,0,0-8.969.594,88.489,88.489,0,0,0-9.559,1.949l11.71-45.137h94.3V162.286h-118.66V303.568c4.163-2.422,6.851-4.41,10.248-5.938" transform="translate(-1937.023 702.955)" fill="#fddb00"/>
    <path id="Trazado_24684" data-name="Trazado 24684" d="M3307.117,492.063c-6.136-3.69-10.91-8.877-15-15.558v60.247a114.728,114.728,0,0,0,15,4.1Z" transform="translate(-1930.039 577.951)" fill="#dea22c"/>
    <path id="Trazado_24685" data-name="Trazado 24685" d="M3307.118,303.56V162.286h-15v145.36l8.321,1.684c2.271-2.149,4.633-4.064,6.679-5.77" transform="translate(-1930.04 702.955)" fill="#dea22c"/>
  </g>
</svg>
